<svg width="56" height="56" viewBox="0 0 56 56" fill="none" xmlns="http://www.w3.org/2000/svg">
<path d="M50.2197 45.0393C53.3954 40.8983 55.3506 35.9521 55.8647 30.759C56.3789 25.5659 55.4315 20.3324 53.1296 15.649C50.8276 10.9657 47.2626 7.01882 42.8368 4.25378C38.411 1.48873 33.3006 0.0155452 28.0821 0.000422741C22.8636 -0.0146997 17.7447 1.42885 13.303 4.16819C8.86127 6.90754 5.27347 10.8337 2.94439 15.5036C0.615307 20.1735 -0.362361 25.4015 0.121688 30.5975C0.605738 35.7935 2.53224 40.7509 5.68384 44.9102L16.0468 37.0581C14.3586 34.8301 13.3267 32.1747 13.0674 29.3915C12.8081 26.6082 13.3318 23.8079 14.5794 21.3064C15.827 18.805 17.7488 16.702 20.128 15.2346C22.5072 13.7673 25.2491 12.9941 28.0444 13.0022C30.8397 13.0103 33.5771 13.7994 35.9478 15.2805C38.3185 16.7616 40.2281 18.8757 41.4611 21.3843C42.6942 23.893 43.2016 26.6963 42.9262 29.478C42.6508 32.2597 41.6035 34.9091 39.9025 37.1272L50.2197 45.0393Z" fill="#030205"/>
<path d="M44.8414 48.0908C30.8336 37.8054 16.4504 43.6956 10.7864 48.0779C10.6874 48.1544 10.6983 48.3033 10.8 48.3761C25.9915 59.2525 39.7074 53.0115 44.8626 48.3782C44.9506 48.2991 44.9368 48.1609 44.8414 48.0908Z" fill="#125FDD"/>
</svg>
