<svg width="100" height="21" viewBox="0 0 100 21" fill="none" xmlns="http://www.w3.org/2000/svg">
<path d="M9.04894 3.48467C9.3483 2.56336 10.6517 2.56336 10.9511 3.48467L12.0206 6.77646C12.1545 7.18849 12.5385 7.46745 12.9717 7.46745H16.4329C17.4016 7.46745 17.8044 8.70706 17.0207 9.27646L14.2205 11.3109C13.87 11.5655 13.7234 12.0169 13.8572 12.4289L14.9268 15.7207C15.2261 16.642 14.1717 17.4082 13.388 16.8388L10.5878 14.8043C10.2373 14.5497 9.7627 14.5497 9.41221 14.8043L6.61204 16.8388C5.82833 17.4082 4.77385 16.642 5.0732 15.7207L6.14277 12.4289C6.27665 12.0169 6.12999 11.5655 5.7795 11.3109L2.97933 9.27646C2.19562 8.70706 2.59839 7.46745 3.56712 7.46745H7.02832C7.46154 7.46745 7.8455 7.18849 7.97937 6.77646L9.04894 3.48467Z" fill="#FF9900" fill-opacity="0.8"/>
<path d="M29.0489 3.48467C29.3483 2.56336 30.6517 2.56336 30.9511 3.48467L32.0206 6.77646C32.1545 7.18849 32.5385 7.46745 32.9717 7.46745H36.4329C37.4016 7.46745 37.8044 8.70706 37.0207 9.27646L34.2205 11.3109C33.87 11.5655 33.7234 12.0169 33.8572 12.4289L34.9268 15.7207C35.2261 16.642 34.1717 17.4082 33.388 16.8388L30.5878 14.8043C30.2373 14.5497 29.7627 14.5497 29.4122 14.8043L26.612 16.8388C25.8283 17.4082 24.7739 16.642 25.0732 15.7207L26.1428 12.4289C26.2766 12.0169 26.13 11.5655 25.7795 11.3109L22.9793 9.27646C22.1956 8.70706 22.5984 7.46745 23.5671 7.46745H27.0283C27.4615 7.46745 27.8455 7.18849 27.9794 6.77646L29.0489 3.48467Z" fill="#FF9900" fill-opacity="0.8"/>
<path d="M49.0489 3.48467C49.3483 2.56336 50.6517 2.56336 50.9511 3.48467L52.0206 6.77646C52.1545 7.18849 52.5385 7.46745 52.9717 7.46745H56.4329C57.4016 7.46745 57.8044 8.70706 57.0207 9.27646L54.2205 11.3109C53.87 11.5655 53.7234 12.0169 53.8572 12.4289L54.9268 15.7207C55.2261 16.642 54.1717 17.4082 53.388 16.8388L50.5878 14.8043C50.2373 14.5497 49.7627 14.5497 49.4122 14.8043L46.612 16.8388C45.8283 17.4082 44.7739 16.642 45.0732 15.7207L46.1428 12.4289C46.2766 12.0169 46.13 11.5655 45.7795 11.3109L42.9793 9.27646C42.1956 8.70706 42.5984 7.46745 43.5671 7.46745H47.0283C47.4615 7.46745 47.8455 7.18849 47.9794 6.77646L49.0489 3.48467Z" fill="#FF9900" fill-opacity="0.8"/>
<path d="M69.0489 3.48467C69.3483 2.56336 70.6517 2.56336 70.9511 3.48467L72.0206 6.77646C72.1545 7.18849 72.5385 7.46745 72.9717 7.46745H76.4329C77.4016 7.46745 77.8044 8.70706 77.0207 9.27646L74.2205 11.3109C73.87 11.5655 73.7234 12.0169 73.8572 12.4289L74.9268 15.7207C75.2261 16.642 74.1717 17.4082 73.388 16.8388L70.5878 14.8043C70.2373 14.5497 69.7627 14.5497 69.4122 14.8043L66.612 16.8388C65.8283 17.4082 64.7739 16.642 65.0732 15.7207L66.1428 12.4289C66.2766 12.0169 66.13 11.5655 65.7795 11.3109L62.9793 9.27646C62.1956 8.70706 62.5984 7.46745 63.5671 7.46745H67.0283C67.4615 7.46745 67.8455 7.18849 67.9794 6.77646L69.0489 3.48467Z" fill="#FF9900" fill-opacity="0.8"/>
<path d="M89.0489 3.48467C89.3483 2.56336 90.6517 2.56336 90.9511 3.48467L92.0206 6.77646C92.1545 7.18849 92.5385 7.46745 92.9717 7.46745H96.4329C97.4016 7.46745 97.8044 8.70706 97.0207 9.27646L94.2205 11.3109C93.87 11.5655 93.7234 12.0169 93.8572 12.4289L94.9268 15.7207C95.2261 16.642 94.1717 17.4082 93.388 16.8388L90.5878 14.8043C90.2373 14.5497 89.7627 14.5497 89.4122 14.8043L86.612 16.8388C85.8283 17.4082 84.7739 16.642 85.0732 15.7207L86.1428 12.4289C86.2766 12.0169 86.13 11.5655 85.7795 11.3109L82.9793 9.27646C82.1956 8.70706 82.5984 7.46745 83.5671 7.46745H87.0283C87.4615 7.46745 87.8455 7.18849 87.9794 6.77646L89.0489 3.48467Z" fill="#FF9900" fill-opacity="0.8"/>
</svg>
