<svg width="46" height="46" viewBox="0 0 46 46" fill="none" xmlns="http://www.w3.org/2000/svg">
<rect width="45.1797" height="45.1797" fill="#144EAC" fill-opacity="0.22"/>
<path fill-rule="evenodd" clip-rule="evenodd" d="M20.778 22.9877L18.53 22.2387C16.177 21.4547 15 21.0627 15 20.3417C15 19.6217 16.177 19.2287 18.53 18.4447L27.043 15.6067C28.699 15.0547 29.527 14.7787 29.964 15.2157C30.401 15.6527 30.125 16.4807 29.574 18.1357L26.735 26.6497C25.951 29.0027 25.559 30.1797 24.838 30.1797C24.118 30.1797 23.725 29.0027 22.941 26.6497L22.191 24.4027L26.545 20.0487C26.7272 19.8601 26.828 19.6075 26.8257 19.3453C26.8234 19.0831 26.7182 18.8322 26.5328 18.6468C26.3474 18.4614 26.0966 18.3563 25.8344 18.354C25.5722 18.3517 25.3196 18.4525 25.131 18.6347L20.778 22.9877Z" fill="#144EAC" fill-opacity="0.996078"/>
</svg>
