<svg width="48" height="50" viewBox="0 0 48 50" fill="none" xmlns="http://www.w3.org/2000/svg">
<rect width="47.999" height="49.999" fill="#144EAC" fill-opacity="0.22"/>
<path d="M29 29H31V17H21V19H29V29ZM29 31V33.999C29 34.552 28.55 34.999 27.993 34.999H16.007C15.8751 34.9998 15.7444 34.9745 15.6223 34.9246C15.5002 34.8747 15.3892 34.8012 15.2957 34.7083C15.2021 34.6154 15.1278 34.5049 15.0771 34.3832C15.0263 34.2614 15.0001 34.1309 15 33.999L15.002 20.001C15.002 19.448 15.452 19 16.009 19H18.999V16C18.999 15.7348 19.1044 15.4804 19.2919 15.2929C19.4794 15.1054 19.7338 15 19.999 15H31.999C32.2642 15 32.5186 15.1054 32.7061 15.2929C32.8936 15.4804 32.999 15.7348 32.999 16V30C32.999 30.2652 32.8936 30.5196 32.7061 30.7071C32.5186 30.8946 32.2642 31 31.999 31H29ZM19 29V31H21V32H23V31H23.5C24.163 31 24.7989 30.7366 25.2678 30.2678C25.7366 29.7989 26 29.163 26 28.5C26 27.837 25.7366 27.2011 25.2678 26.7322C24.7989 26.2634 24.163 26 23.5 26H20.5C20.3674 26 20.2402 25.9473 20.1464 25.8536C20.0527 25.7598 20 25.6326 20 25.5C20 25.3674 20.0527 25.2402 20.1464 25.1464C20.2402 25.0527 20.3674 25 20.5 25H25V23H23V22H21V23H20.5C19.837 23 19.2011 23.2634 18.7322 23.7322C18.2634 24.2011 18 24.837 18 25.5C18 26.163 18.2634 26.7989 18.7322 27.2678C19.2011 27.7366 19.837 28 20.5 28H23.5C23.6326 28 23.7598 28.0527 23.8536 28.1464C23.9473 28.2402 24 28.3674 24 28.5C24 28.6326 23.9473 28.7598 23.8536 28.8536C23.7598 28.9473 23.6326 29 23.5 29H19Z" fill="#144EAC" fill-opacity="0.996078"/>
</svg>
