<svg width="52" height="50" viewBox="0 0 52 50" fill="none" xmlns="http://www.w3.org/2000/svg">
<rect width="51.5" height="49.763" transform="translate(0.5)" fill="#144EAC" fill-opacity="0.22"/>
<path fill-rule="evenodd" clip-rule="evenodd" d="M16.25 15C16.0511 15 15.8603 15.079 15.7197 15.2197C15.579 15.3603 15.5 15.5511 15.5 15.75C15.5 15.9489 15.579 16.1397 15.7197 16.2803C15.8603 16.421 16.0511 16.5 16.25 16.5H18.25V26.027C18.25 27.367 18.25 28.037 18.518 28.628C18.786 29.219 19.29 29.66 20.299 30.543L22.299 32.293C24.182 33.94 25.123 34.763 26.25 34.763C27.377 34.763 28.319 33.94 30.201 32.293L32.201 30.543C33.209 29.66 33.714 29.219 33.981 28.628C34.25 28.038 34.25 27.368 34.25 26.028V16.5H36.25C36.4489 16.5 36.6397 16.421 36.7803 16.2803C36.921 16.1397 37 15.9489 37 15.75C37 15.5511 36.921 15.3603 36.7803 15.2197C36.6397 15.079 36.4489 15 36.25 15H16.25ZM22.75 26C22.5511 26 22.3603 26.079 22.2197 26.2197C22.079 26.3603 22 26.5511 22 26.75C22 26.9489 22.079 27.1397 22.2197 27.2803C22.3603 27.421 22.5511 27.5 22.75 27.5H29.75C29.9489 27.5 30.1397 27.421 30.2803 27.2803C30.421 27.1397 30.5 26.9489 30.5 26.75C30.5 26.5511 30.421 26.3603 30.2803 26.2197C30.1397 26.079 29.9489 26 29.75 26H22.75ZM22 21.75C22 21.5511 22.079 21.3603 22.2197 21.2197C22.3603 21.079 22.5511 21 22.75 21H29.75C29.9489 21 30.1397 21.079 30.2803 21.2197C30.421 21.3603 30.5 21.5511 30.5 21.75C30.5 21.9489 30.421 22.1397 30.2803 22.2803C30.1397 22.421 29.9489 22.5 29.75 22.5H22.75C22.5511 22.5 22.3603 22.421 22.2197 22.2803C22.079 22.1397 22 21.9489 22 21.75Z" fill="#144EAC" fill-opacity="0.996078"/>
</svg>
