<svg width="57" height="56" viewBox="0 0 57 56" fill="none" xmlns="http://www.w3.org/2000/svg">
<rect width="56" height="56" transform="translate(0.5)" fill="#144EAC" fill-opacity="0.19"/>
<path d="M19.5 15V34C19.5 34.555 19.055 35 18.5 35C17.945 35 17.5 34.555 17.5 34V22H18.5V20H15.5V34C15.5 35.645 16.855 37 18.5 37H28.5C28.3 36.4 28.187 35.7 28.187 35H21.314C21.428 34.684 21.501 34.353 21.501 34V17H37.501V28C38.201 28.2 38.901 28.5 39.501 29V15H19.5ZM23.5 19V23H35.5V19H23.5ZM23.5 25V27H28.5V25H23.5ZM30.5 25V27H35.5V25H30.5ZM23.5 28V30H28.5V28H23.5ZM35.5 29C32.176 29 29.5 31.676 29.5 35C29.5 38.324 32.176 41 35.5 41V39C33.224 39 31.5 37.276 31.5 35C31.5 32.724 33.224 31 35.5 31C37.776 31 39.5 32.724 39.5 35C39.5 35.868 39.253 36.67 38.812 37.313L37.5 36L37 40.5L41.5 40L40.25 38.75C41.081 37.706 41.5 36.377 41.5 35C41.5 31.676 38.824 29 35.5 29ZM23.5 31V33H28.5V31H23.5Z" fill="#144EAC" fill-opacity="0.996078"/>
</svg>
