<svg width="19" height="18" viewBox="0 0 19 18" fill="none" xmlns="http://www.w3.org/2000/svg">
<g id="check-contained">
<g id="Icon">
<path d="M2.75 9C2.75 5.27208 5.77208 2.25 9.5 2.25C13.2279 2.25 16.25 5.27208 16.25 9C16.25 12.7279 13.2279 15.75 9.5 15.75C5.77208 15.75 2.75 12.7279 2.75 9Z" fill="#125FDD" fill-opacity="0.5"/>
<path d="M11.8565 7.48725L8.65625 10.6875L7.56537 9.59662M9.5 2.25C5.77208 2.25 2.75 5.27208 2.75 9C2.75 12.7279 5.77208 15.75 9.5 15.75C13.2279 15.75 16.25 12.7279 16.25 9C16.25 5.27208 13.2279 2.25 9.5 2.25Z" stroke="white" stroke-linecap="round" stroke-linejoin="round"/>
</g>
</g>
</svg>
