<svg width="169" height="40" viewBox="0 0 169 40" fill="none" xmlns="http://www.w3.org/2000/svg">
<g clip-path="url(#clip0_301_4571)">
<path fill-rule="evenodd" clip-rule="evenodd" d="M10.0148 2.5V40H0V2.5H10.0148Z" fill="#FF0000"/>
<path fill-rule="evenodd" clip-rule="evenodd" d="M15.0225 2.5H36.304C43.2178 2.5 48.8225 8.09644 48.8225 15C48.8225 21.9036 43.2178 27.5 36.304 27.5H25.0373V40H15.0225V2.5ZM25.0373 17.5H36.304C37.6868 17.5 38.8077 16.3807 38.8077 15C38.8077 13.6193 37.6868 12.5 36.304 12.5H25.0373V17.5Z" fill="#FF0000"/>
<path fill-rule="evenodd" clip-rule="evenodd" d="M86.3781 2.5V21.875C86.3781 26.3623 90.0211 30 94.5151 30C99.0091 30 102.652 26.3623 102.652 21.875V2.5H112.667V21.875C112.667 31.8852 104.54 40 94.5151 40C84.4901 40 76.3633 31.8852 76.3633 21.875V2.5H86.3781Z" fill="#FF0000"/>
<path fill-rule="evenodd" clip-rule="evenodd" d="M52.5783 20C52.5783 10.335 60.4249 2.5 70.1042 2.5H72.6079V12.5H70.1042C65.9559 12.5 62.5931 15.8579 62.5931 20V21.25C62.5931 31.6053 54.186 40 43.8153 40H42.5635V30H43.8153C48.655 30 52.5783 26.0825 52.5783 21.25V20Z" fill="#FF0000"/>
<path d="M169 3.75C169 5.82107 167.319 7.5 165.244 7.5C163.17 7.5 161.489 5.82107 161.489 3.75C161.489 1.67893 163.17 0 165.244 0C167.319 0 169 1.67893 169 3.75Z" fill="#FF0000"/>
<path d="M123.42 40L128.199 20.0181L131.752 32.0393C133.87 39.2091 144.041 39.2091 146.16 32.0393L149.712 20.0181L154.491 40H164.787L157.273 8.5795C155.486 1.10745 144.941 0.830788 142.763 8.19892L138.956 21.0833L135.148 8.19893C132.971 0.830831 122.425 1.10741 120.638 8.57949L113.124 40H123.42Z" fill="#FF0000"/>
</g>
<defs>
<clipPath id="clip0_301_4571">
<rect width="169" height="40" fill="white"/>
</clipPath>
</defs>
</svg>
