<svg width="25" height="24" viewBox="0 0 25 24" fill="none" xmlns="http://www.w3.org/2000/svg">
<g id="mingcute:contacts-4-line" clip-path="url(#clip0_247_426)">
<g id="Group">
<path id="Vector" fill-rule="evenodd" clip-rule="evenodd" d="M6.14746 7C6.14746 5.67392 6.67424 4.40215 7.61193 3.46447C8.54961 2.52678 9.82138 2 11.1475 2C12.4735 2 13.7453 2.52678 14.683 3.46447C15.6207 4.40215 16.1475 5.67392 16.1475 7C16.1475 8.32608 15.6207 9.59785 14.683 10.5355C13.7453 11.4732 12.4735 12 11.1475 12C9.82138 12 8.54961 11.4732 7.61193 10.5355C6.67424 9.59785 6.14746 8.32608 6.14746 7ZM11.1475 4C10.7535 4 10.3634 4.0776 9.99941 4.22836C9.63543 4.37913 9.30472 4.6001 9.02614 4.87868C8.74756 5.15726 8.52659 5.48797 8.37582 5.85195C8.22506 6.21593 8.14746 6.60603 8.14746 7C8.14746 7.39397 8.22506 7.78407 8.37582 8.14805C8.52659 8.51203 8.74756 8.84274 9.02614 9.12132C9.30472 9.3999 9.63543 9.62087 9.99941 9.77164C10.3634 9.9224 10.7535 10 11.1475 10C11.9431 10 12.7062 9.68393 13.2688 9.12132C13.8314 8.55871 14.1475 7.79565 14.1475 7C14.1475 6.20435 13.8314 5.44129 13.2688 4.87868C12.7062 4.31607 11.9431 4 11.1475 4ZM11.1475 13C13.5435 13 15.7225 13.694 17.3255 14.672C18.1255 15.16 18.8095 15.736 19.3035 16.362C19.7895 16.977 20.1475 17.713 20.1475 18.5C20.1475 19.345 19.7365 20.011 19.1445 20.486C18.5845 20.936 17.8455 21.234 17.0605 21.442C15.4825 21.859 13.3765 22 11.1475 22C8.91846 22 6.81246 21.86 5.23446 21.442C4.44946 21.234 3.71046 20.936 3.15046 20.486C2.55746 20.01 2.14746 19.345 2.14746 18.5C2.14746 17.713 2.50546 16.977 2.99146 16.361C3.48546 15.736 4.16846 15.161 4.96946 14.671C6.57246 13.695 8.75246 13 11.1475 13ZM11.1475 15C9.12446 15 7.30446 15.59 6.01146 16.379C5.36446 16.773 4.87646 17.201 4.56146 17.601C4.23746 18.011 4.14746 18.321 4.14746 18.5C4.14746 18.622 4.18446 18.751 4.40246 18.926C4.65146 19.126 5.08446 19.333 5.74646 19.508C7.06446 19.858 8.95846 20 11.1475 20C13.3375 20 15.2305 19.857 16.5475 19.508C17.2105 19.333 17.6435 19.126 17.8925 18.926C18.1105 18.751 18.1475 18.622 18.1475 18.5C18.1475 18.32 18.0575 18.011 17.7345 17.601C17.4185 17.201 16.9305 16.773 16.2835 16.379C14.9905 15.589 13.1705 15 11.1475 15ZM21.1475 13C21.4023 13.0003 21.6475 13.0979 21.8328 13.2728C22.0182 13.4478 22.1297 13.687 22.1446 13.9414C22.1596 14.1958 22.0768 14.4464 21.9132 14.6418C21.7496 14.8373 21.5176 14.9629 21.2645 14.993L21.1475 15H20.1475C19.8926 14.9997 19.6474 14.9021 19.4621 14.7272C19.2768 14.5522 19.1652 14.313 19.1503 14.0586C19.1354 13.8042 19.2181 13.5536 19.3817 13.3582C19.5453 13.1627 19.7774 13.0371 20.0305 13.007L20.1475 13H21.1475ZM18.1475 11C18.1475 10.7348 18.2528 10.4804 18.4404 10.2929C18.6279 10.1054 18.8822 10 19.1475 10H21.1475C21.4127 10 21.667 10.1054 21.8546 10.2929C22.0421 10.4804 22.1475 10.7348 22.1475 11C22.1475 11.2652 22.0421 11.5196 21.8546 11.7071C21.667 11.8946 21.4127 12 21.1475 12H19.1475C18.8822 12 18.6279 11.8946 18.4404 11.7071C18.2528 11.5196 18.1475 11.2652 18.1475 11ZM18.1475 7C17.8822 7 17.6279 7.10536 17.4404 7.29289C17.2528 7.48043 17.1475 7.73478 17.1475 8C17.1475 8.26522 17.2528 8.51957 17.4404 8.70711C17.6279 8.89464 17.8822 9 18.1475 9H21.1475C21.4127 9 21.667 8.89464 21.8546 8.70711C22.0421 8.51957 22.1475 8.26522 22.1475 8C22.1475 7.73478 22.0421 7.48043 21.8546 7.29289C21.667 7.10536 21.4127 7 21.1475 7H18.1475Z" fill="white"/>
</g>
</g>
<defs>
<clipPath id="clip0_247_426">
<rect width="24" height="24" fill="white" transform="translate(0.147461)"/>
</clipPath>
</defs>
</svg>
