<svg width="25" height="24" viewBox="0 0 25 24" fill="none" xmlns="http://www.w3.org/2000/svg">
<g id="radix-icons:dashboard">
<path id="Vector" fill-rule="evenodd" clip-rule="evenodd" d="M4.62707 1.60001H4.54707C4.18067 1.60001 3.86547 1.60001 3.58707 1.66561C3.15609 1.76859 2.76203 1.98888 2.44856 2.30207C2.13509 2.61526 1.91444 3.00912 1.81107 3.44001C1.74707 3.71841 1.74707 4.03201 1.74707 4.40001V8.40001C1.74707 8.76641 1.74707 9.08161 1.81267 9.36001C1.91565 9.79099 2.13594 10.185 2.44913 10.4985C2.76232 10.812 3.15618 11.0326 3.58707 11.136C3.86547 11.2 4.17907 11.2 4.54707 11.2H8.54707C8.91347 11.2 9.22867 11.2 9.50707 11.1344C9.93805 11.0314 10.3321 10.8111 10.6456 10.4979C10.9591 10.1848 11.1797 9.7909 11.2831 9.36001C11.3471 9.08161 11.3471 8.76801 11.3471 8.40001V4.40001C11.3471 4.03361 11.3471 3.71841 11.2815 3.44001C11.1785 3.00902 10.9582 2.61497 10.645 2.3015C10.3318 1.98802 9.93796 1.76738 9.50707 1.66401C9.22867 1.60001 8.91507 1.60001 8.54707 1.60001H8.46707H4.62707ZM3.95987 3.22241C4.02867 3.20641 4.13587 3.20001 4.62707 3.20001H8.46707C8.95987 3.20001 9.06547 3.20481 9.13427 3.22241C9.278 3.25678 9.4094 3.33029 9.51389 3.43478C9.61839 3.53928 9.6919 3.67068 9.72627 3.81441C9.74227 3.88161 9.74707 3.98721 9.74707 4.48001V8.32001C9.74707 8.81281 9.74227 8.91841 9.72467 8.98721C9.6903 9.13093 9.61679 9.26233 9.51229 9.36683C9.4078 9.47133 9.2764 9.54484 9.13267 9.57921C9.06707 9.59361 8.96147 9.60001 8.46707 9.60001H4.62707C4.13427 9.60001 4.02867 9.59521 3.95987 9.57761C3.81614 9.54324 3.68474 9.46973 3.58025 9.36523C3.47575 9.26073 3.40224 9.12933 3.36787 8.98561C3.35347 8.92001 3.34707 8.81441 3.34707 8.32001V4.48001C3.34707 3.98721 3.35187 3.88161 3.36947 3.81281C3.40384 3.66908 3.47735 3.53768 3.58185 3.43318C3.68634 3.32869 3.81774 3.25518 3.96147 3.22081M15.8271 1.60001H15.7471C15.3807 1.60001 15.0655 1.60001 14.7871 1.66561C14.3561 1.76859 13.962 1.98888 13.6486 2.30207C13.3351 2.61526 13.1144 3.00912 13.0111 3.44001C12.9471 3.71841 12.9471 4.03201 12.9471 4.40001V8.40001C12.9471 8.76641 12.9471 9.08161 13.0127 9.36001C13.1157 9.79099 13.3359 10.185 13.6491 10.4985C13.9623 10.812 14.3562 11.0326 14.7871 11.136C15.0655 11.2 15.3791 11.2 15.7471 11.2H19.7471C20.1135 11.2 20.4287 11.2 20.7071 11.1344C21.1381 11.0314 21.5321 10.8111 21.8456 10.4979C22.1591 10.1848 22.3797 9.7909 22.4831 9.36001C22.5471 9.08161 22.5471 8.76801 22.5471 8.40001V4.40001C22.5471 4.03361 22.5471 3.71841 22.4815 3.44001C22.3785 3.00902 22.1582 2.61497 21.845 2.3015C21.5318 1.98802 21.138 1.76738 20.7071 1.66401C20.4287 1.60001 20.1151 1.60001 19.7471 1.60001H19.6671H15.8271ZM15.1599 3.22241C15.2287 3.20641 15.3359 3.20001 15.8271 3.20001H19.6671C20.1599 3.20001 20.2655 3.20481 20.3343 3.22241C20.478 3.25678 20.6094 3.33029 20.7139 3.43478C20.8184 3.53928 20.8919 3.67068 20.9263 3.81441C20.9423 3.88161 20.9471 3.98721 20.9471 4.48001V8.32001C20.9471 8.81281 20.9407 8.91841 20.9247 8.98721C20.8903 9.13093 20.8168 9.26233 20.7123 9.36683C20.6078 9.47133 20.4764 9.54484 20.3327 9.57921C20.2655 9.59521 20.1599 9.60001 19.6671 9.60001H15.8271C15.3343 9.60001 15.2287 9.59521 15.1599 9.57761C15.0161 9.54324 14.8847 9.46973 14.7802 9.36523C14.6758 9.26073 14.6022 9.12933 14.5679 8.98561C14.5535 8.92001 14.5471 8.81441 14.5471 8.32001V4.48001C14.5471 3.98721 14.5519 3.88161 14.5695 3.81281C14.6038 3.66908 14.6774 3.53768 14.7818 3.43318C14.8863 3.32869 15.0177 3.25518 15.1615 3.22081M4.54707 12.8H8.54707C8.91347 12.8 9.22867 12.8 9.50707 12.8656C9.93805 12.9686 10.3321 13.1889 10.6456 13.5021C10.9591 13.8153 11.1797 14.2091 11.2831 14.64C11.3471 14.9184 11.3471 15.232 11.3471 15.6V19.6C11.3471 19.9664 11.3471 20.2816 11.2815 20.56C11.1785 20.991 10.9582 21.385 10.645 21.6985C10.3318 22.012 9.93796 22.2326 9.50707 22.336C9.22867 22.4 8.91507 22.4 8.54707 22.4H4.54707C4.18067 22.4 3.86547 22.4 3.58707 22.3344C3.15609 22.2314 2.76203 22.0111 2.44856 21.6979C2.13509 21.3848 1.91444 20.9909 1.81107 20.56C1.74707 20.2816 1.74707 19.968 1.74707 19.6V15.6C1.74707 15.2336 1.74707 14.9184 1.81267 14.64C1.91565 14.209 2.13594 13.815 2.44913 13.5015C2.76232 13.188 3.15618 12.9674 3.58707 12.864C3.86547 12.8 4.17907 12.8 4.54707 12.8ZM4.62707 14.4C4.13427 14.4 4.02867 14.4048 3.95987 14.4224C3.81614 14.4568 3.68474 14.5303 3.58025 14.6348C3.47575 14.7393 3.40224 14.8707 3.36787 15.0144C3.35347 15.08 3.34707 15.1856 3.34707 15.68V19.52C3.34707 20.0128 3.35187 20.1184 3.36947 20.1872C3.40384 20.3309 3.47735 20.4623 3.58185 20.5668C3.68634 20.6713 3.81774 20.7448 3.96147 20.7792C4.02867 20.7952 4.13427 20.8 4.62707 20.8H8.46707C8.95987 20.8 9.06547 20.7936 9.13427 20.7776C9.278 20.7432 9.4094 20.6697 9.51389 20.5652C9.61839 20.4607 9.6919 20.3293 9.72627 20.1856C9.74227 20.1184 9.74707 20.0128 9.74707 19.52V15.68C9.74707 15.1872 9.74227 15.0816 9.72467 15.0128C9.6903 14.8691 9.61679 14.7377 9.51229 14.6332C9.4078 14.5287 9.2764 14.4552 9.13267 14.4208C9.06707 14.4064 8.96147 14.4 8.46707 14.4H4.62707ZM15.8271 12.8H15.7471C15.3807 12.8 15.0655 12.8 14.7871 12.8656C14.3561 12.9686 13.962 13.1889 13.6486 13.5021C13.3351 13.8153 13.1144 14.2091 13.0111 14.64C12.9471 14.9184 12.9471 15.232 12.9471 15.6V19.6C12.9471 19.9664 12.9471 20.2816 13.0127 20.56C13.1157 20.991 13.3359 21.385 13.6491 21.6985C13.9623 22.012 14.3562 22.2326 14.7871 22.336C15.0655 22.4016 15.3807 22.4016 15.7471 22.4016H19.7471C20.1135 22.4016 20.4287 22.4016 20.7071 22.336C21.1378 22.2328 21.5315 22.0124 21.8447 21.6992C22.1578 21.386 22.3782 20.9923 22.4815 20.5616C22.5471 20.2832 22.5471 19.968 22.5471 19.6016V15.6C22.5471 15.2336 22.5471 14.9184 22.4815 14.64C22.3785 14.209 22.1582 13.815 21.845 13.5015C21.5318 13.188 21.138 12.9674 20.7071 12.864C20.4287 12.8 20.1151 12.8 19.7471 12.8H19.6671H15.8271ZM15.1599 14.4224C15.2287 14.4064 15.3359 14.4 15.8271 14.4H19.6671C20.1599 14.4 20.2655 14.4048 20.3343 14.4224C20.478 14.4568 20.6094 14.5303 20.7139 14.6348C20.8184 14.7393 20.8919 14.8707 20.9263 15.0144C20.9423 15.0816 20.9471 15.1872 20.9471 15.68V19.52C20.9471 20.0128 20.9407 20.1184 20.9247 20.1872C20.8903 20.3309 20.8168 20.4623 20.7123 20.5668C20.6078 20.6713 20.4764 20.7448 20.3327 20.7792C20.2655 20.7952 20.1599 20.8 19.6671 20.8H15.8271C15.3343 20.8 15.2287 20.7936 15.1599 20.7776C15.0161 20.7432 14.8847 20.6697 14.7802 20.5652C14.6758 20.4607 14.6022 20.3293 14.5679 20.1856C14.5535 20.12 14.5471 20.0144 14.5471 19.52V15.68C14.5471 15.1872 14.5519 15.0816 14.5695 15.0128C14.6038 14.8691 14.6774 14.7377 14.7818 14.6332C14.8863 14.5287 15.0177 14.4552 15.1615 14.4208" fill="#030205" fill-opacity="0.7"/>
</g>
</svg>
