<svg width="200" height="200" viewBox="0 0 200 200" fill="none" xmlns="http://www.w3.org/2000/svg">
<path d="M80.9169 94.0833C79.3477 92.5141 77.2194 91.6326 75.0002 91.6326C72.7811 91.6326 70.6528 92.5141 69.0836 94.0833C67.5144 95.6525 66.6328 97.7808 66.6328 100C66.6328 102.219 67.5144 104.347 69.0836 105.917L94.0836 130.917C94.8622 131.689 95.7857 132.3 96.801 132.715C97.8163 133.129 98.9035 133.34 100 133.333C101.141 133.297 102.262 133.027 103.294 132.54C104.327 132.052 105.247 131.358 106 130.5L164.334 63.8333C165.68 62.1611 166.33 60.0334 166.146 57.894C165.963 55.7546 164.961 53.7686 163.349 52.3501C161.737 50.9315 159.64 50.19 157.494 50.28C155.349 50.3701 153.321 51.2847 151.834 52.8333L100 112.833L80.9169 94.0833Z" fill="#144EAC"/>
<path d="M175 91.6667C172.79 91.6667 170.67 92.5446 169.107 94.1074C167.545 95.6702 166.667 97.7899 166.667 100C166.667 117.681 159.643 134.638 147.141 147.14C134.638 159.643 117.681 166.667 100 166.667C86.8341 166.661 73.9648 162.756 63.0148 155.446C52.0647 148.136 43.5244 137.747 38.4707 125.59C33.4171 113.432 32.0763 100.051 34.6175 87.1324C37.1587 74.2141 43.4681 62.3374 52.7501 53C58.9226 46.7449 66.2807 41.7837 74.3939 38.4068C82.507 35.0299 91.2122 33.3051 100 33.3333C105.329 33.3667 110.638 33.9814 115.833 35.1667C116.921 35.503 118.065 35.613 119.197 35.49C120.328 35.367 121.422 35.0136 122.412 34.4515C123.401 33.8894 124.265 33.1306 124.95 32.2219C125.635 31.3131 126.127 30.2737 126.395 29.1676C126.663 28.0616 126.701 26.9124 126.508 25.7908C126.315 24.6693 125.894 23.5992 125.272 22.6466C124.649 21.694 123.838 20.8789 122.888 20.2518C121.939 19.6246 120.871 19.1986 119.75 19C113.276 17.477 106.651 16.6942 100 16.6667C83.5362 16.7522 67.4666 21.7127 53.8192 30.9221C40.1718 40.1315 29.5582 53.1772 23.3177 68.4128C17.0773 83.6483 15.4897 100.391 18.7554 116.528C22.021 132.665 29.9935 147.473 41.6667 159.083C57.1392 174.563 78.1138 183.282 100 183.333C122.101 183.333 143.298 174.554 158.926 158.926C174.554 143.298 183.333 122.101 183.333 100C183.333 97.7899 182.455 95.6702 180.893 94.1074C179.33 92.5446 177.21 91.6667 175 91.6667Z" fill="#144EAC"/>
</svg>
