<svg width="319" height="85" viewBox="0 0 319 85" fill="none" xmlns="http://www.w3.org/2000/svg">
<path fill-rule="evenodd" clip-rule="evenodd" d="M20.2521 30.1232C0.908019 40.3704 -8.98002 55.5868 14.8723 67.2208C35.4569 77.2641 70.6908 80.7512 99.3163 82.6824C128.054 84.623 156.918 84.504 185.307 83.2688C233.319 81.1834 321.973 74.295 318.022 46.9473C315.756 31.2737 284.686 15.4944 253.481 7.69894C215.882 -1.69407 171.814 -1.01455 132.474 2.56349C92.5343 6.19436 54.6929 13.7507 30.1953 27.6728C10.3725 38.9387 -4.83764 57.51 21.0807 70.4852C43.9789 81.9494 86.4696 83.1367 117.396 82.1554C154.865 80.9654 192.19 78.892 227.681 74.1851C260.24 69.8648 294.606 62.7185 310.242 49.2424C321.349 39.6651 319.699 28.9853 298.728 21.3642C277.24 13.5528 246.222 10.9178 219.865 9.19561C190.888 7.30263 162.623 7.09286 134.045 8.40483C127.217 8.71963 120.383 9.03012 113.55 9.32151C110.501 9.45274 111.732 11.4628 114.751 11.3319C133.782 10.5171 152.608 9.31397 171.909 9.48938C185.465 9.61441 199.063 10.0743 212.61 10.8055C240.739 12.326 273.02 14.975 296.249 23.0384C324.157 32.7295 311.087 48.2228 291.392 56.925C264.506 68.8076 222.098 73.5229 184.462 76.5745C148.758 79.4694 108.918 82.0929 71.9594 79.2723C54.0516 77.9052 35.6132 74.7192 23.2868 68.5474C9.048 61.4195 10.7713 51.7932 16.3007 43.8817C29.8665 24.4908 69.7554 12.5555 113.342 6.81307C155.277 1.29165 204.253 -0.801082 246.591 8.34895C267.688 12.9064 284.585 20.3102 297.172 28.786C307.188 35.5356 314.767 43.2424 313.106 51.0759C310.269 64.4635 277.43 71.476 251.308 75.3544C220.791 79.8826 187.263 81.6883 154.481 82.1022C123.893 82.4875 92.2407 81.083 62.4143 76.9433C45.7757 74.6315 29.0404 71.1334 17.1632 65.3406C3.85898 58.8491 3.15562 50.2104 8.95322 42.8014C16.7034 32.9007 35.6553 25.0563 54.8195 19.1358C73.7889 13.2742 97.445 8.55284 121.894 8.35204C124.942 8.32735 125.042 6.29001 121.965 6.31506C81.8455 6.64344 44.0062 17.5384 20.2521 30.1232Z" fill="#1BACB0"/>
</svg>
