<svg width="260" height="31" viewBox="0 0 260 31" fill="none" xmlns="http://www.w3.org/2000/svg">
<path d="M9.84 30H1.68C1.38667 30 1.13333 29.8933 0.92 29.68C0.706667 29.4667 0.6 29.2133 0.6 28.92V3.08C0.6 2.78667 0.706667 2.53333 0.92 2.32C1.13333 2.10666 1.38667 2 1.68 2H9.84C10.1333 2 10.3867 2.10666 10.6 2.32C10.8133 2.53333 10.92 2.78667 10.92 3.08V28.92C10.92 29.2133 10.8133 29.4667 10.6 29.68C10.3867 29.8933 10.1333 30 9.84 30ZM39.0678 17.88V28.92C39.0678 29.2133 38.9611 29.4667 38.7478 29.68C38.5345 29.8933 38.2811 30 37.9878 30H30.3478C30.0545 30 29.8011 29.8933 29.5878 29.68C29.3745 29.4667 29.2678 29.2133 29.2678 28.92V18.16C29.2678 16.6933 28.6011 15.96 27.2678 15.96C25.9345 15.96 25.2678 16.6933 25.2678 18.16V28.92C25.2678 29.2133 25.1611 29.4667 24.9478 29.68C24.7345 29.8933 24.4811 30 24.1878 30H16.5878C16.2945 30 16.0411 29.8933 15.8278 29.68C15.6145 29.4667 15.5078 29.2133 15.5078 28.92V10.28C15.5078 9.98667 15.6145 9.73333 15.8278 9.52C16.0411 9.30667 16.2945 9.2 16.5878 9.2H23.5878C23.8811 9.2 24.1345 9.30667 24.3478 9.52C24.5611 9.73333 24.6678 9.98667 24.6678 10.28V11.6C25.3611 10.7733 26.2945 10.1067 27.4678 9.6C28.6678 9.06667 29.9478 8.8 31.3078 8.8C33.4945 8.8 35.3345 9.57333 36.8278 11.12C38.3211 12.64 39.0678 14.8933 39.0678 17.88ZM56.8916 30H50.4916C49.9316 30 49.4916 29.6667 49.1716 29L41.4916 10.48C41.4649 10.4 41.4516 10.2667 41.4516 10.08C41.4516 9.89333 41.5449 9.70667 41.7316 9.52C41.9182 9.33333 42.1449 9.24 42.4116 9.24H49.1716C49.8116 9.24 50.2516 9.56 50.4916 10.2L53.6916 19.48L56.8916 10.16C57.1316 9.52 57.5716 9.2 58.2116 9.2H64.9716C65.2382 9.2 65.4649 9.29333 65.6516 9.48C65.8382 9.66667 65.9316 9.85333 65.9316 10.04C65.9316 10.2267 65.9182 10.36 65.8916 10.44L58.2116 29C57.8916 29.6667 57.4516 30 56.8916 30ZM67.9156 20.96V18.24C67.9156 15.2 68.9956 12.8667 71.1556 11.24C73.3156 9.61333 76.1023 8.8 79.5156 8.8C82.929 8.8 85.7156 9.61333 87.8756 11.24C90.0356 12.8667 91.1156 15.2 91.1156 18.24V20.96C91.1156 24.0267 90.0756 26.3733 87.9956 28C85.9156 29.6 83.089 30.4 79.5156 30.4C75.9423 30.4 73.1156 29.6 71.0356 28C68.9556 26.3733 67.9156 24.0267 67.9156 20.96ZM81.3156 21.28V17.92C81.3156 16.9067 81.1823 16.2 80.9156 15.8C80.649 15.4 80.1823 15.2 79.5156 15.2C78.849 15.2 78.3823 15.4 78.1156 15.8C77.849 16.2 77.7156 16.9067 77.7156 17.92V21.28C77.7156 22.3467 77.849 23.0667 78.1156 23.44C78.3823 23.8133 78.849 24 79.5156 24C80.1823 24 80.649 23.8 80.9156 23.4C81.1823 23 81.3156 22.2933 81.3156 21.28ZM102.771 30H95.6113C95.3179 30 95.0646 29.8933 94.8513 29.68C94.6379 29.4667 94.5313 29.2133 94.5313 28.92V10.28C94.5313 9.98667 94.6379 9.73333 94.8513 9.52C95.0646 9.30667 95.3179 9.2 95.6113 9.2H102.771C103.065 9.2 103.318 9.30667 103.531 9.52C103.745 9.73333 103.851 9.98667 103.851 10.28V28.92C103.851 29.2133 103.745 29.4667 103.531 29.68C103.318 29.8933 103.065 30 102.771 30ZM103.651 1.48V6.32C103.651 6.61333 103.545 6.86667 103.331 7.08C103.118 7.29333 102.865 7.4 102.571 7.4H95.8113C95.5179 7.4 95.2646 7.29333 95.0513 7.08C94.8379 6.86667 94.7313 6.61333 94.7313 6.32V1.48C94.7313 1.18666 94.8379 0.933332 95.0513 0.719998C95.2646 0.506666 95.5179 0.4 95.8113 0.4H102.571C102.865 0.4 103.118 0.506666 103.331 0.719998C103.545 0.933332 103.651 1.18666 103.651 1.48ZM117.052 18.2V21C117.052 21.9067 117.172 22.56 117.412 22.96C117.652 23.36 118.025 23.56 118.532 23.56C119.038 23.56 119.385 23.48 119.572 23.32C119.758 23.1333 119.945 22.8 120.132 22.32C120.345 21.8133 120.732 21.56 121.292 21.56H129.092C129.385 21.56 129.638 21.6667 129.852 21.88C130.065 22.0933 130.172 22.3733 130.172 22.72C130.172 23.0667 130.052 23.5333 129.812 24.12C129.572 24.7067 129.158 25.3733 128.572 26.12C127.985 26.8667 127.265 27.56 126.412 28.2C125.558 28.8133 124.438 29.3333 123.052 29.76C121.665 30.1867 120.132 30.4 118.452 30.4C115.118 30.4 112.412 29.5333 110.332 27.8C108.278 26.04 107.252 23.6133 107.252 20.52V18.68C107.252 15.5867 108.278 13.1733 110.332 11.44C112.412 9.68 115.118 8.8 118.452 8.8C120.425 8.8 122.212 9.10667 123.812 9.72C125.412 10.3067 126.638 11.04 127.492 11.92C128.372 12.7733 129.038 13.6133 129.492 14.44C129.945 15.2667 130.172 15.9067 130.172 16.36C130.172 16.7867 130.065 17.1067 129.852 17.32C129.638 17.5333 129.385 17.64 129.092 17.64H121.292C120.785 17.64 120.398 17.3733 120.132 16.84C119.758 16.04 119.265 15.64 118.652 15.64C117.585 15.64 117.052 16.4933 117.052 18.2ZM154.479 21.96H142.559V22.16C142.559 23.7867 143.079 24.6 144.119 24.6C144.413 24.6 144.773 24.3867 145.199 23.96C145.626 23.5333 146.093 23.32 146.599 23.32H154.159C154.746 23.32 155.039 23.6133 155.039 24.2C155.039 25.5067 154.053 26.8667 152.079 28.28C150.133 29.6933 147.479 30.4 144.119 30.4C140.786 30.4 138.053 29.5333 135.919 27.8C133.813 26.04 132.759 23.6267 132.759 20.56V18.64C132.759 15.7333 133.839 13.3733 135.999 11.56C138.159 9.72 140.986 8.8 144.479 8.8C147.999 8.8 150.719 9.82667 152.639 11.88C154.586 13.9333 155.559 16.5333 155.559 19.68V20.88C155.559 21.1733 155.453 21.4267 155.239 21.64C155.026 21.8533 154.773 21.96 154.479 21.96ZM145.759 16.8C145.759 15.2 145.226 14.4 144.159 14.4C143.093 14.4 142.559 15.2 142.559 16.8V16.96H145.759V16.8ZM160.625 2H172.545C176.385 2 179.385 2.82667 181.545 4.48C183.705 6.13333 184.785 8.57333 184.785 11.8C184.785 15.0267 183.705 17.4133 181.545 18.96C179.412 20.5067 176.412 21.28 172.545 21.28H169.945V28.92C169.945 29.2133 169.839 29.4667 169.625 29.68C169.412 29.8933 169.159 30 168.865 30H160.625C160.332 30 160.079 29.8933 159.865 29.68C159.652 29.4667 159.545 29.2133 159.545 28.92V3.08C159.545 2.78667 159.652 2.53333 159.865 2.32C160.079 2.10666 160.332 2 160.625 2ZM169.745 9.44V13.88H172.545C173.025 13.88 173.452 13.7067 173.825 13.36C174.199 12.9867 174.385 12.4667 174.385 11.8C174.385 11.1333 174.239 10.5733 173.945 10.12C173.652 9.66667 173.185 9.44 172.545 9.44H169.745ZM196.209 30H189.049C188.755 30 188.502 29.8933 188.289 29.68C188.075 29.4667 187.969 29.2133 187.969 28.92V10.28C187.969 9.98667 188.075 9.73333 188.289 9.52C188.502 9.30667 188.755 9.2 189.049 9.2H196.209C196.502 9.2 196.755 9.30667 196.969 9.52C197.182 9.73333 197.289 9.98667 197.289 10.28V28.92C197.289 29.2133 197.182 29.4667 196.969 29.68C196.755 29.8933 196.502 30 196.209 30ZM197.089 1.48V6.32C197.089 6.61333 196.982 6.86667 196.769 7.08C196.555 7.29333 196.302 7.4 196.009 7.4H189.249C188.955 7.4 188.702 7.29333 188.489 7.08C188.275 6.86667 188.169 6.61333 188.169 6.32V1.48C188.169 1.18666 188.275 0.933332 188.489 0.719998C188.702 0.506666 188.955 0.4 189.249 0.4H196.009C196.302 0.4 196.555 0.506666 196.769 0.719998C196.982 0.933332 197.089 1.18666 197.089 1.48ZM209.529 30H202.369C202.076 30 201.822 29.8933 201.609 29.68C201.396 29.4667 201.289 29.2133 201.289 28.92V2.68C201.289 2.38667 201.396 2.13333 201.609 1.92C201.822 1.70667 202.076 1.6 202.369 1.6H209.529C209.822 1.6 210.076 1.70667 210.289 1.92C210.502 2.13333 210.609 2.38667 210.609 2.68V28.92C210.609 29.2133 210.502 29.4667 210.289 29.68C210.076 29.8933 209.822 30 209.529 30ZM214.009 20.96V18.24C214.009 15.2 215.089 12.8667 217.249 11.24C219.409 9.61333 222.196 8.8 225.609 8.8C229.023 8.8 231.809 9.61333 233.969 11.24C236.129 12.8667 237.209 15.2 237.209 18.24V20.96C237.209 24.0267 236.169 26.3733 234.089 28C232.009 29.6 229.183 30.4 225.609 30.4C222.036 30.4 219.209 29.6 217.129 28C215.049 26.3733 214.009 24.0267 214.009 20.96ZM227.409 21.28V17.92C227.409 16.9067 227.276 16.2 227.009 15.8C226.743 15.4 226.276 15.2 225.609 15.2C224.943 15.2 224.476 15.4 224.209 15.8C223.943 16.2 223.809 16.9067 223.809 17.92V21.28C223.809 22.3467 223.943 23.0667 224.209 23.44C224.476 23.8133 224.943 24 225.609 24C226.276 24 226.743 23.8 227.009 23.4C227.276 23 227.409 22.2933 227.409 21.28ZM252.625 16.2V20.6C252.625 21.9333 253.198 22.6 254.345 22.6H257.985C258.278 22.6 258.532 22.7067 258.745 22.92C258.958 23.1333 259.065 23.3867 259.065 23.68V28.92C259.065 29.2133 258.958 29.4667 258.745 29.68C258.532 29.8933 258.278 30 257.985 30H253.465C246.798 30 243.465 27.1333 243.465 21.4V16.2H240.305C240.012 16.2 239.758 16.0933 239.545 15.88C239.332 15.6667 239.225 15.4133 239.225 15.12V10.28C239.225 9.98667 239.332 9.73333 239.545 9.52C239.758 9.30667 240.012 9.2 240.305 9.2H243.465V2.68C243.465 2.38667 243.572 2.13333 243.785 1.92C243.998 1.70667 244.252 1.6 244.545 1.6H251.545C251.838 1.6 252.092 1.70667 252.305 1.92C252.518 2.13333 252.625 2.38667 252.625 2.68V9.2H257.665C257.958 9.2 258.212 9.30667 258.425 9.52C258.638 9.73333 258.745 9.98667 258.745 10.28V15.12C258.745 15.4133 258.638 15.6667 258.425 15.88C258.212 16.0933 257.958 16.2 257.665 16.2H252.625Z" fill="white"/>
</svg>
