<svg width="56" height="56" viewBox="0 0 56 56" fill="none" xmlns="http://www.w3.org/2000/svg">
<path d="M50.2197 45.0395C53.3954 40.8984 55.3506 35.9523 55.8647 30.7592C56.3789 25.5661 55.4315 20.3326 53.1296 15.6492C50.8276 10.9659 47.2626 7.019 42.8368 4.25396C38.411 1.48892 33.3006 0.0157283 28.0821 0.000605846C22.8636 -0.0145166 17.7447 1.42903 13.303 4.16838C8.86127 6.90772 5.27347 10.8338 2.94439 15.5038C0.615307 20.1737 -0.362361 25.4016 0.121688 30.5977C0.605738 35.7937 2.53224 40.751 5.68384 44.9104L16.0468 37.0583C14.3586 34.8303 13.3267 32.1749 13.0674 29.3917C12.8081 26.6084 13.3318 23.8081 14.5794 21.3066C15.827 18.8052 17.7488 16.7021 20.128 15.2348C22.5072 13.7675 25.2491 12.9942 28.0444 13.0023C30.8397 13.0104 33.5771 13.7996 35.9478 15.2806C38.3185 16.7617 40.2281 18.8759 41.4611 21.3845C42.6942 23.8932 43.2016 26.6965 42.9262 29.4782C42.6508 32.2599 41.6035 34.9093 39.9025 37.1274L50.2197 45.0395Z" fill="white"/>
<path d="M44.8414 48.0909C30.8336 37.8055 16.4504 43.6957 10.7864 48.0779C10.6874 48.1545 10.6983 48.3033 10.8 48.3762C25.9915 59.2526 39.7074 53.0115 44.8626 48.3783C44.9506 48.2991 44.9368 48.1609 44.8414 48.0909Z" fill="#125FDD"/>
</svg>
