<svg width="56" height="56" viewBox="0 0 56 56" fill="none" xmlns="http://www.w3.org/2000/svg">
<g id="Frame 1000002624">
<g id="Group 2">
<path id="Ellipse 2944" d="M50.2201 45.0393C53.3958 40.8983 55.351 35.9521 55.8651 30.759C56.3793 25.5659 55.4319 20.3324 53.13 15.649C50.828 10.9657 47.263 7.01882 42.8372 4.25378C38.4114 1.48873 33.301 0.0155452 28.0825 0.000422741C22.864 -0.0146997 17.7451 1.42885 13.3034 4.16819C8.86166 6.90754 5.27385 10.8337 2.94477 15.5036C0.615689 20.1735 -0.36198 25.4015 0.12207 30.5975C0.60612 35.7935 2.53262 40.7509 5.68422 44.9102L16.0472 37.0581C14.359 34.8301 13.3271 32.1747 13.0678 29.3915C12.8085 26.6082 13.3322 23.8079 14.5798 21.3064C15.8274 18.805 17.7492 16.702 20.1284 15.2346C22.5076 13.7673 25.2495 12.9941 28.0448 13.0022C30.8401 13.0103 33.5775 13.7994 35.9482 15.2805C38.3189 16.7616 40.2284 18.8757 41.4615 21.3843C42.6946 23.893 43.202 26.6963 42.9266 29.478C42.6512 32.2597 41.6039 34.9091 39.9028 37.1272L50.2201 45.0393Z" fill="#030205"/>
<path id="Vector 85" d="M44.8418 48.0908C30.834 37.8054 16.4508 43.6956 10.7868 48.0779C10.6878 48.1544 10.6987 48.3033 10.8004 48.3761C25.9919 59.2525 39.7078 53.0115 44.863 48.3782C44.951 48.2991 44.9372 48.1609 44.8418 48.0908Z" fill="#125FDD"/>
</g>
</g>
</svg>
