<svg width="55" height="55" viewBox="0 0 55 55" fill="none" xmlns="http://www.w3.org/2000/svg">
<rect width="55" height="55" rx="10" fill="white"/>
<rect x="0.1" y="0.1" width="54.8" height="54.8" rx="9.9" stroke="black" stroke-opacity="0.3" stroke-width="0.2"/>
<path d="M30 24C30 23.7348 29.8946 23.4804 29.7071 23.2929C29.5196 23.1054 29.2652 23 29 23H21C20.7348 23 20.4804 23.1054 20.2929 23.2929C20.1054 23.4804 20 23.7348 20 24C20 24.2652 20.1054 24.5196 20.2929 24.7071C20.4804 24.8946 20.7348 25 21 25H29C29.2652 25 29.5196 24.8946 29.7071 24.7071C29.8946 24.5196 30 24.2652 30 24ZM28.6667 28C28.6667 27.7348 28.5613 27.4804 28.3738 27.2929C28.1862 27.1054 27.9319 27 27.6667 27H21C20.7348 27 20.4804 27.1054 20.2929 27.2929C20.1054 27.4804 20 27.7348 20 28C20 28.2652 20.1054 28.5196 20.2929 28.7071C20.4804 28.8946 20.7348 29 21 29H27.6667C27.9319 29 28.1862 28.8946 28.3738 28.7071C28.5613 28.5196 28.6667 28.2652 28.6667 28ZM29 31C29.2652 31 29.5196 31.1054 29.7071 31.2929C29.8946 31.4804 30 31.7348 30 32C30 32.2652 29.8946 32.5196 29.7071 32.7071C29.5196 32.8946 29.2652 33 29 33H21C20.7348 33 20.4804 32.8946 20.2929 32.7071C20.1054 32.5196 20 32.2652 20 32C20 31.7348 20.1054 31.4804 20.2929 31.2929C20.4804 31.1054 20.7348 31 21 31H29Z" fill="#838195"/>
<path fill-rule="evenodd" clip-rule="evenodd" d="M20 40H37.3333C38.3058 40 39.2384 39.6137 39.9261 38.9261C40.6137 38.2384 41 37.3058 41 36.3333V29C41 28.7348 40.8946 28.4804 40.7071 28.2929C40.5196 28.1054 40.2652 28 40 28H35.6667V17.5907C35.6667 15.6933 33.5213 14.5893 31.9773 15.692L31.744 15.8587C31.2331 16.2214 30.6217 16.4158 29.9951 16.4148C29.3686 16.4139 28.7578 16.2176 28.248 15.8534C27.3968 15.2476 26.3781 14.9221 25.3333 14.9221C24.2886 14.9221 23.2698 15.2476 22.4187 15.8534C21.9088 16.2176 21.2981 16.4139 20.6715 16.4148C20.0449 16.4158 19.4336 16.2214 18.9227 15.8587L18.6893 15.692C17.1453 14.5893 15 15.692 15 17.5907V35C15 36.3261 15.5268 37.5979 16.4645 38.5356C17.4021 39.4732 18.6739 40 20 40ZM23.5813 17.48C24.0933 17.1166 24.7055 16.9214 25.3333 16.9214C25.9611 16.9214 26.5734 17.1166 27.0853 17.48C27.9343 18.0868 28.9514 18.4136 29.9949 18.4148C31.0385 18.416 32.0563 18.0916 32.9067 17.4867L33.14 17.32C33.1898 17.2846 33.2484 17.2635 33.3094 17.2591C33.3703 17.2547 33.4313 17.2671 33.4857 17.2951C33.5401 17.323 33.5857 17.3654 33.6176 17.4175C33.6495 17.4696 33.6665 17.5296 33.6667 17.5907V36.3333C33.6667 36.9333 33.8107 37.5 34.0667 38H20C19.2044 38 18.4413 37.6839 17.8787 37.1213C17.3161 36.5587 17 35.7957 17 35V17.5907C17.0002 17.5296 17.0171 17.4696 17.049 17.4175C17.081 17.3654 17.1266 17.323 17.181 17.2951C17.2353 17.2671 17.2963 17.2547 17.3573 17.2591C17.4183 17.2635 17.4769 17.2846 17.5267 17.32L17.76 17.4867C18.6103 18.0916 19.6282 18.416 20.6717 18.4148C21.7153 18.4136 22.7324 18.0868 23.5813 17.48ZM35.6667 36.3333V30H39V36.3333C39 36.7754 38.8244 37.1993 38.5118 37.5119C38.1993 37.8244 37.7754 38 37.3333 38C36.8913 38 36.4674 37.8244 36.1548 37.5119C35.8423 37.1993 35.6667 36.7754 35.6667 36.3333Z" fill="#838195"/>
</svg>
