<svg width="216" height="66" viewBox="0 0 216 66" fill="none" xmlns="http://www.w3.org/2000/svg">
<path d="M41.6074 43.6302C43.7055 40.8944 44.9973 37.6266 45.3369 34.1956C45.6766 30.7647 45.0507 27.307 43.5299 24.2129C42.009 21.1187 39.6537 18.5111 36.7297 16.6843C33.8057 14.8575 30.4294 13.8842 26.9817 13.8742C23.534 13.8642 20.152 14.8179 17.2175 16.6278C14.283 18.4376 11.9126 21.0315 10.3738 24.1168C8.83507 27.2021 8.18915 30.656 8.50895 34.0889C8.82875 37.5218 10.1015 40.797 12.1837 43.545L19.0303 38.3573C17.9149 36.8853 17.2332 35.131 17.0619 33.2921C16.8906 31.4533 17.2365 29.6032 18.0608 27.9506C18.885 26.2979 20.1547 24.9085 21.7266 23.9391C23.2985 22.9696 25.11 22.4588 26.9568 22.4641C28.8036 22.4695 30.6121 22.9908 32.1783 23.9694C33.7446 24.9479 35.0062 26.3446 35.8208 28.002C36.6355 29.6594 36.9708 31.5115 36.7888 33.3493C36.6068 35.1871 35.9149 36.9375 34.7911 38.403L41.6074 43.6302Z" fill="white"/>
<path d="M38.0541 45.6463C28.7995 38.851 19.2969 42.7425 15.5548 45.6377C15.4894 45.6883 15.4966 45.7866 15.5638 45.8348C25.6005 53.0205 34.6622 48.8972 38.0681 45.8361C38.1263 45.7839 38.1172 45.6926 38.0541 45.6463Z" fill="#125FDD"/>
<path d="M58.5299 40.3728H53.6339C53.4579 40.3728 53.3059 40.3088 53.1779 40.1808C53.0499 40.0528 52.9859 39.9008 52.9859 39.7248V24.2208C52.9859 24.0448 53.0499 23.8928 53.1779 23.7648C53.3059 23.6368 53.4579 23.5728 53.6339 23.5728H58.5299C58.7059 23.5728 58.8579 23.6368 58.9859 23.7648C59.1139 23.8928 59.1779 24.0448 59.1779 24.2208V39.7248C59.1779 39.9008 59.1139 40.0528 58.9859 40.1808C58.8579 40.3088 58.7059 40.3728 58.5299 40.3728ZM76.0666 33.1008V39.7248C76.0666 39.9008 76.0026 40.0528 75.8746 40.1808C75.7466 40.3088 75.5946 40.3728 75.4186 40.3728H70.8346C70.6586 40.3728 70.5066 40.3088 70.3786 40.1808C70.2506 40.0528 70.1866 39.9008 70.1866 39.7248V33.2688C70.1866 32.3888 69.7866 31.9488 68.9866 31.9488C68.1866 31.9488 67.7866 32.3888 67.7866 33.2688V39.7248C67.7866 39.9008 67.7226 40.0528 67.5946 40.1808C67.4666 40.3088 67.3146 40.3728 67.1386 40.3728H62.5786C62.4026 40.3728 62.2506 40.3088 62.1226 40.1808C61.9946 40.0528 61.9306 39.9008 61.9306 39.7248V28.5408C61.9306 28.3648 61.9946 28.2128 62.1226 28.0848C62.2506 27.9568 62.4026 27.8928 62.5786 27.8928H66.7786C66.9546 27.8928 67.1066 27.9568 67.2346 28.0848C67.3626 28.2128 67.4266 28.3648 67.4266 28.5408V29.3328C67.8426 28.8368 68.4026 28.4368 69.1066 28.1328C69.8266 27.8128 70.5946 27.6528 71.4106 27.6528C72.7226 27.6528 73.8266 28.1168 74.7226 29.0448C75.6186 29.9568 76.0666 31.3088 76.0666 33.1008ZM86.7608 40.3728H82.9208C82.5848 40.3728 82.3208 40.1728 82.1288 39.7728L77.5208 28.6608C77.5048 28.6128 77.4968 28.5328 77.4968 28.4208C77.4968 28.3088 77.5528 28.1968 77.6648 28.0848C77.7768 27.9728 77.9128 27.9168 78.0728 27.9168H82.1288C82.5128 27.9168 82.7768 28.1088 82.9208 28.4928L84.8408 34.0608L86.7608 28.4688C86.9048 28.0848 87.1688 27.8928 87.5528 27.8928H91.6088C91.7688 27.8928 91.9048 27.9488 92.0168 28.0608C92.1288 28.1728 92.1848 28.2848 92.1848 28.3968C92.1848 28.5088 92.1768 28.5888 92.1608 28.6368L87.5528 39.7728C87.3608 40.1728 87.0968 40.3728 86.7608 40.3728ZM93.3753 34.9488V33.3168C93.3753 31.4928 94.0233 30.0928 95.3193 29.1168C96.6153 28.1408 98.2873 27.6528 100.335 27.6528C102.383 27.6528 104.055 28.1408 105.351 29.1168C106.647 30.0928 107.295 31.4928 107.295 33.3168V34.9488C107.295 36.7888 106.671 38.1968 105.423 39.1728C104.175 40.1328 102.479 40.6128 100.335 40.6128C98.1913 40.6128 96.4953 40.1328 95.2473 39.1728C93.9993 38.1968 93.3753 36.7888 93.3753 34.9488ZM101.415 35.1408V33.1248C101.415 32.5168 101.335 32.0928 101.175 31.8528C101.015 31.6128 100.735 31.4928 100.335 31.4928C99.9353 31.4928 99.6553 31.6128 99.4953 31.8528C99.3353 32.0928 99.2553 32.5168 99.2553 33.1248V35.1408C99.2553 35.7808 99.3353 36.2128 99.4953 36.4368C99.6553 36.6608 99.9353 36.7728 100.335 36.7728C100.735 36.7728 101.015 36.6528 101.175 36.4128C101.335 36.1728 101.415 35.7488 101.415 35.1408ZM114.289 40.3728H109.993C109.817 40.3728 109.665 40.3088 109.537 40.1808C109.409 40.0528 109.345 39.9008 109.345 39.7248V28.5408C109.345 28.3648 109.409 28.2128 109.537 28.0848C109.665 27.9568 109.817 27.8928 109.993 27.8928H114.289C114.465 27.8928 114.617 27.9568 114.745 28.0848C114.873 28.2128 114.937 28.3648 114.937 28.5408V39.7248C114.937 39.9008 114.873 40.0528 114.745 40.1808C114.617 40.3088 114.465 40.3728 114.289 40.3728ZM114.817 23.2608V26.1648C114.817 26.3408 114.753 26.4928 114.625 26.6208C114.497 26.7488 114.345 26.8128 114.169 26.8128H110.113C109.937 26.8128 109.785 26.7488 109.657 26.6208C109.529 26.4928 109.465 26.3408 109.465 26.1648V23.2608C109.465 23.0848 109.529 22.9328 109.657 22.8048C109.785 22.6768 109.937 22.6128 110.113 22.6128H114.169C114.345 22.6128 114.497 22.6768 114.625 22.8048C114.753 22.9328 114.817 23.0848 114.817 23.2608ZM122.857 33.2928V34.9728C122.857 35.5168 122.929 35.9088 123.073 36.1488C123.217 36.3888 123.441 36.5088 123.745 36.5088C124.049 36.5088 124.257 36.4608 124.369 36.3648C124.481 36.2528 124.593 36.0528 124.705 35.7648C124.833 35.4608 125.065 35.3088 125.401 35.3088H130.081C130.257 35.3088 130.409 35.3728 130.537 35.5008C130.665 35.6288 130.729 35.7968 130.729 36.0048C130.729 36.2128 130.657 36.4928 130.513 36.8448C130.369 37.1968 130.121 37.5968 129.769 38.0448C129.417 38.4928 128.985 38.9088 128.473 39.2928C127.961 39.6608 127.289 39.9728 126.457 40.2288C125.625 40.4848 124.705 40.6128 123.697 40.6128C121.697 40.6128 120.073 40.0928 118.825 39.0528C117.593 37.9968 116.977 36.5408 116.977 34.6848V33.5808C116.977 31.7248 117.593 30.2768 118.825 29.2368C120.073 28.1808 121.697 27.6528 123.697 27.6528C124.881 27.6528 125.953 27.8368 126.913 28.2048C127.873 28.5568 128.609 28.9968 129.121 29.5248C129.649 30.0368 130.049 30.5408 130.321 31.0368C130.593 31.5328 130.729 31.9168 130.729 32.1888C130.729 32.4448 130.665 32.6368 130.537 32.7648C130.409 32.8928 130.257 32.9568 130.081 32.9568H125.401C125.097 32.9568 124.865 32.7968 124.705 32.4768C124.481 31.9968 124.185 31.7568 123.817 31.7568C123.177 31.7568 122.857 32.2688 122.857 33.2928ZM145.314 35.5488H138.162V35.6688C138.162 36.6448 138.474 37.1328 139.098 37.1328C139.274 37.1328 139.49 37.0048 139.746 36.7488C140.002 36.4928 140.282 36.3648 140.586 36.3648H145.122C145.474 36.3648 145.65 36.5408 145.65 36.8928C145.65 37.6768 145.058 38.4928 143.874 39.3408C142.706 40.1888 141.114 40.6128 139.098 40.6128C137.098 40.6128 135.458 40.0928 134.178 39.0528C132.914 37.9968 132.282 36.5488 132.282 34.7088V33.5568C132.282 31.8128 132.93 30.3968 134.226 29.3088C135.522 28.2048 137.218 27.6528 139.314 27.6528C141.426 27.6528 143.058 28.2688 144.21 29.5008C145.378 30.7328 145.962 32.2928 145.962 34.1808V34.9008C145.962 35.0768 145.898 35.2288 145.77 35.3568C145.642 35.4848 145.49 35.5488 145.314 35.5488ZM140.082 32.4528C140.082 31.4928 139.762 31.0128 139.122 31.0128C138.482 31.0128 138.162 31.4928 138.162 32.4528V32.5488H140.082V32.4528ZM149.001 23.5728H156.153C158.457 23.5728 160.257 24.0688 161.553 25.0608C162.849 26.0528 163.497 27.5168 163.497 29.4528C163.497 31.3888 162.849 32.8208 161.553 33.7488C160.273 34.6768 158.473 35.1408 156.153 35.1408H154.593V39.7248C154.593 39.9008 154.529 40.0528 154.401 40.1808C154.273 40.3088 154.121 40.3728 153.945 40.3728H149.001C148.825 40.3728 148.673 40.3088 148.545 40.1808C148.417 40.0528 148.353 39.9008 148.353 39.7248V24.2208C148.353 24.0448 148.417 23.8928 148.545 23.7648C148.673 23.6368 148.825 23.5728 149.001 23.5728ZM154.473 28.0368V30.7008H156.153C156.441 30.7008 156.697 30.5968 156.921 30.3888C157.145 30.1648 157.257 29.8528 157.257 29.4528C157.257 29.0528 157.169 28.7168 156.993 28.4448C156.817 28.1728 156.537 28.0368 156.153 28.0368H154.473ZM170.351 40.3728H166.055C165.879 40.3728 165.727 40.3088 165.599 40.1808C165.471 40.0528 165.407 39.9008 165.407 39.7248V28.5408C165.407 28.3648 165.471 28.2128 165.599 28.0848C165.727 27.9568 165.879 27.8928 166.055 27.8928H170.351C170.527 27.8928 170.679 27.9568 170.807 28.0848C170.935 28.2128 170.999 28.3648 170.999 28.5408V39.7248C170.999 39.9008 170.935 40.0528 170.807 40.1808C170.679 40.3088 170.527 40.3728 170.351 40.3728ZM170.879 23.2608V26.1648C170.879 26.3408 170.815 26.4928 170.687 26.6208C170.559 26.7488 170.407 26.8128 170.231 26.8128H166.175C165.999 26.8128 165.847 26.7488 165.719 26.6208C165.591 26.4928 165.527 26.3408 165.527 26.1648V23.2608C165.527 23.0848 165.591 22.9328 165.719 22.8048C165.847 22.6768 165.999 22.6128 166.175 22.6128H170.231C170.407 22.6128 170.559 22.6768 170.687 22.8048C170.815 22.9328 170.879 23.0848 170.879 23.2608ZM178.343 40.3728H174.047C173.871 40.3728 173.719 40.3088 173.591 40.1808C173.463 40.0528 173.399 39.9008 173.399 39.7248V23.9808C173.399 23.8048 173.463 23.6528 173.591 23.5248C173.719 23.3968 173.871 23.3328 174.047 23.3328H178.343C178.519 23.3328 178.671 23.3968 178.799 23.5248C178.927 23.6528 178.991 23.8048 178.991 23.9808V39.7248C178.991 39.9008 178.927 40.0528 178.799 40.1808C178.671 40.3088 178.519 40.3728 178.343 40.3728ZM181.032 34.9488V33.3168C181.032 31.4928 181.68 30.0928 182.976 29.1168C184.272 28.1408 185.944 27.6528 187.992 27.6528C190.04 27.6528 191.712 28.1408 193.008 29.1168C194.304 30.0928 194.952 31.4928 194.952 33.3168V34.9488C194.952 36.7888 194.328 38.1968 193.08 39.1728C191.832 40.1328 190.136 40.6128 187.992 40.6128C185.848 40.6128 184.152 40.1328 182.904 39.1728C181.656 38.1968 181.032 36.7888 181.032 34.9488ZM189.072 35.1408V33.1248C189.072 32.5168 188.992 32.0928 188.832 31.8528C188.672 31.6128 188.392 31.4928 187.992 31.4928C187.592 31.4928 187.312 31.6128 187.152 31.8528C186.992 32.0928 186.912 32.5168 186.912 33.1248V35.1408C186.912 35.7808 186.992 36.2128 187.152 36.4368C187.312 36.6608 187.592 36.7728 187.992 36.7728C188.392 36.7728 188.672 36.6528 188.832 36.4128C188.992 36.1728 189.072 35.7488 189.072 35.1408ZM204.201 32.0928V34.7328C204.201 35.5328 204.545 35.9328 205.233 35.9328H207.417C207.593 35.9328 207.745 35.9968 207.873 36.1248C208.001 36.2528 208.065 36.4048 208.065 36.5808V39.7248C208.065 39.9008 208.001 40.0528 207.873 40.1808C207.745 40.3088 207.593 40.3728 207.417 40.3728H204.705C200.705 40.3728 198.705 38.6528 198.705 35.2128V32.0928H196.809C196.633 32.0928 196.481 32.0288 196.353 31.9008C196.225 31.7728 196.161 31.6208 196.161 31.4448V28.5408C196.161 28.3648 196.225 28.2128 196.353 28.0848C196.481 27.9568 196.633 27.8928 196.809 27.8928H198.705V23.9808C198.705 23.8048 198.769 23.6528 198.897 23.5248C199.025 23.3968 199.177 23.3328 199.353 23.3328H203.553C203.729 23.3328 203.881 23.3968 204.009 23.5248C204.137 23.6528 204.201 23.8048 204.201 23.9808V27.8928H207.225C207.401 27.8928 207.553 27.9568 207.681 28.0848C207.809 28.2128 207.873 28.3648 207.873 28.5408V31.4448C207.873 31.6208 207.809 31.7728 207.681 31.9008C207.553 32.0288 207.401 32.0928 207.225 32.0928H204.201Z" fill="white"/>
</svg>
