<svg width="18" height="24" viewBox="0 0 18 24" fill="none" xmlns="http://www.w3.org/2000/svg">
<path d="M18 3V24H0V3H6C6 2.58594 6.07812 2.19922 6.23438 1.83984C6.39062 1.48047 6.60547 1.16016 6.87891 0.878906C7.15234 0.597656 7.46875 0.382812 7.82812 0.234375C8.1875 0.0859375 8.57812 0.0078125 9 0C9.41406 0 9.80078 0.078125 10.1602 0.234375C10.5195 0.390625 10.8398 0.605469 11.1211 0.878906C11.4023 1.15234 11.6172 1.46875 11.7656 1.82812C11.9141 2.1875 11.9922 2.57812 12 3H18ZM4.5 6H13.5V4.5H10.5V3C10.5 2.78906 10.4609 2.59375 10.3828 2.41406C10.3047 2.23438 10.1992 2.07812 10.0664 1.94531C9.93359 1.8125 9.77344 1.70312 9.58594 1.61719C9.39844 1.53125 9.20312 1.49219 9 1.5C8.78906 1.5 8.59375 1.53906 8.41406 1.61719C8.23438 1.69531 8.07812 1.80078 7.94531 1.93359C7.8125 2.06641 7.70312 2.22656 7.61719 2.41406C7.53125 2.60156 7.49219 2.79688 7.5 3V4.5H4.5V6ZM16.5 4.5H15V7.5H3V4.5H1.5V22.5H16.5V4.5ZM9 10.5H15V12H9V10.5ZM9 15H15V16.5H9V15ZM9 19.5H15V21H9V19.5ZM6.97266 8.47266L8.02734 9.52734L5.25 12.3047L3.22266 10.2773L4.27734 9.22266L5.25 10.1953L6.97266 8.47266ZM6.97266 12.9727L8.02734 14.0273L5.25 16.8047L3.22266 14.7773L4.27734 13.7227L5.25 14.6953L6.97266 12.9727ZM6.97266 17.4727L8.02734 18.5273L5.25 21.3047L3.22266 19.2773L4.27734 18.2227L5.25 19.1953L6.97266 17.4727Z" fill="white"/>
</svg>
