<svg width="43" height="43" viewBox="0 0 43 43" fill="none" xmlns="http://www.w3.org/2000/svg">
<g id="Frame 1000002624">
<g id="Group 2">
<path id="Ellipse 2944" d="M37.8961 33.9867C40.2925 30.8619 41.7679 27.1295 42.1558 23.2108C42.5438 19.2921 41.829 15.3429 40.0919 11.8088C38.3548 8.27473 35.6647 5.29642 32.325 3.20992C28.9853 1.12341 25.1289 0.0117443 21.191 0.000332855C17.2532 -0.0110786 13.3904 1.07822 10.0387 3.14534C6.68697 5.21245 3.97961 8.17511 2.22208 11.6991C0.464551 15.223 -0.273199 19.168 0.0920659 23.0889C0.45733 27.0098 1.91107 30.7507 4.28927 33.8893L12.1092 27.9641C10.8353 26.2829 10.0566 24.2791 9.86093 22.1789C9.66528 20.0786 10.0605 17.9655 11.0019 16.0779C11.9433 14.1903 13.3935 12.6033 15.1889 11.4961C16.9842 10.3888 19.0533 9.80534 21.1626 9.81145C23.2719 9.81757 25.3376 10.413 27.1265 11.5307C28.9154 12.6483 30.3564 14.2436 31.2869 16.1367C32.2173 18.0297 32.6002 20.1451 32.3924 22.2442C32.1846 24.3432 31.3943 26.3425 30.1107 28.0163L37.8961 33.9867Z" fill="#fff"/>
<path id="Vector 85" d="M33.8377 36.2894C23.2674 28.528 12.4139 32.9727 8.13972 36.2796C8.06504 36.3374 8.07324 36.4497 8.15002 36.5047C19.6135 44.712 29.9636 40.0025 33.8537 36.5063C33.9201 36.4465 33.9097 36.3423 33.8377 36.2894Z" fill="blue"/>
</g>
</g>
</svg>
