<svg width="262" height="50" viewBox="0 0 262 50" fill="none" xmlns="http://www.w3.org/2000/svg">
<path d="M11.84 38H3.68C3.38667 38 3.13333 37.8933 2.92 37.68C2.70667 37.4667 2.6 37.2133 2.6 36.92V11.08C2.6 10.7867 2.70667 10.5333 2.92 10.32C3.13333 10.1067 3.38667 10 3.68 10H11.84C12.1333 10 12.3867 10.1067 12.6 10.32C12.8133 10.5333 12.92 10.7867 12.92 11.08V36.92C12.92 37.2133 12.8133 37.4667 12.6 37.68C12.3867 37.8933 12.1333 38 11.84 38ZM41.0678 25.88V36.92C41.0678 37.2133 40.9611 37.4667 40.7478 37.68C40.5345 37.8933 40.2811 38 39.9878 38H32.3478C32.0545 38 31.8011 37.8933 31.5878 37.68C31.3745 37.4667 31.2678 37.2133 31.2678 36.92V26.16C31.2678 24.6933 30.6011 23.96 29.2678 23.96C27.9345 23.96 27.2678 24.6933 27.2678 26.16V36.92C27.2678 37.2133 27.1611 37.4667 26.9478 37.68C26.7345 37.8933 26.4811 38 26.1878 38H18.5878C18.2945 38 18.0411 37.8933 17.8278 37.68C17.6145 37.4667 17.5078 37.2133 17.5078 36.92V18.28C17.5078 17.9867 17.6145 17.7333 17.8278 17.52C18.0411 17.3067 18.2945 17.2 18.5878 17.2H25.5878C25.8811 17.2 26.1345 17.3067 26.3478 17.52C26.5611 17.7333 26.6678 17.9867 26.6678 18.28V19.6C27.3611 18.7733 28.2945 18.1067 29.4678 17.6C30.6678 17.0667 31.9478 16.8 33.3078 16.8C35.4945 16.8 37.3345 17.5733 38.8278 19.12C40.3211 20.64 41.0678 22.8933 41.0678 25.88ZM58.8916 38H52.4916C51.9316 38 51.4916 37.6667 51.1716 37L43.4916 18.48C43.4649 18.4 43.4516 18.2667 43.4516 18.08C43.4516 17.8933 43.5449 17.7067 43.7316 17.52C43.9182 17.3333 44.1449 17.24 44.4116 17.24H51.1716C51.8116 17.24 52.2516 17.56 52.4916 18.2L55.6916 27.48L58.8916 18.16C59.1316 17.52 59.5716 17.2 60.2116 17.2H66.9716C67.2382 17.2 67.4649 17.2933 67.6516 17.48C67.8382 17.6667 67.9316 17.8533 67.9316 18.04C67.9316 18.2267 67.9182 18.36 67.8916 18.44L60.2116 37C59.8916 37.6667 59.4516 38 58.8916 38ZM69.9156 28.96V26.24C69.9156 23.2 70.9956 20.8667 73.1556 19.24C75.3156 17.6133 78.1023 16.8 81.5156 16.8C84.929 16.8 87.7156 17.6133 89.8756 19.24C92.0356 20.8667 93.1156 23.2 93.1156 26.24V28.96C93.1156 32.0267 92.0756 34.3733 89.9956 36C87.9156 37.6 85.089 38.4 81.5156 38.4C77.9423 38.4 75.1156 37.6 73.0356 36C70.9556 34.3733 69.9156 32.0267 69.9156 28.96ZM83.3156 29.28V25.92C83.3156 24.9067 83.1823 24.2 82.9156 23.8C82.649 23.4 82.1823 23.2 81.5156 23.2C80.849 23.2 80.3823 23.4 80.1156 23.8C79.849 24.2 79.7156 24.9067 79.7156 25.92V29.28C79.7156 30.3467 79.849 31.0667 80.1156 31.44C80.3823 31.8133 80.849 32 81.5156 32C82.1823 32 82.649 31.8 82.9156 31.4C83.1823 31 83.3156 30.2933 83.3156 29.28ZM104.771 38H97.6113C97.3179 38 97.0646 37.8933 96.8513 37.68C96.6379 37.4667 96.5313 37.2133 96.5313 36.92V18.28C96.5313 17.9867 96.6379 17.7333 96.8513 17.52C97.0646 17.3067 97.3179 17.2 97.6113 17.2H104.771C105.065 17.2 105.318 17.3067 105.531 17.52C105.745 17.7333 105.851 17.9867 105.851 18.28V36.92C105.851 37.2133 105.745 37.4667 105.531 37.68C105.318 37.8933 105.065 38 104.771 38ZM105.651 9.48V14.32C105.651 14.6133 105.545 14.8667 105.331 15.08C105.118 15.2933 104.865 15.4 104.571 15.4H97.8113C97.5179 15.4 97.2646 15.2933 97.0513 15.08C96.8379 14.8667 96.7313 14.6133 96.7313 14.32V9.48C96.7313 9.18666 96.8379 8.93333 97.0513 8.72C97.2646 8.50667 97.5179 8.4 97.8113 8.4H104.571C104.865 8.4 105.118 8.50667 105.331 8.72C105.545 8.93333 105.651 9.18666 105.651 9.48ZM119.052 26.2V29C119.052 29.9067 119.172 30.56 119.412 30.96C119.652 31.36 120.025 31.56 120.532 31.56C121.038 31.56 121.385 31.48 121.572 31.32C121.758 31.1333 121.945 30.8 122.132 30.32C122.345 29.8133 122.732 29.56 123.292 29.56H131.092C131.385 29.56 131.638 29.6667 131.852 29.88C132.065 30.0933 132.172 30.3733 132.172 30.72C132.172 31.0667 132.052 31.5333 131.812 32.12C131.572 32.7067 131.158 33.3733 130.572 34.12C129.985 34.8667 129.265 35.56 128.412 36.2C127.558 36.8133 126.438 37.3333 125.052 37.76C123.665 38.1867 122.132 38.4 120.452 38.4C117.118 38.4 114.412 37.5333 112.332 35.8C110.278 34.04 109.252 31.6133 109.252 28.52V26.68C109.252 23.5867 110.278 21.1733 112.332 19.44C114.412 17.68 117.118 16.8 120.452 16.8C122.425 16.8 124.212 17.1067 125.812 17.72C127.412 18.3067 128.638 19.04 129.492 19.92C130.372 20.7733 131.038 21.6133 131.492 22.44C131.945 23.2667 132.172 23.9067 132.172 24.36C132.172 24.7867 132.065 25.1067 131.852 25.32C131.638 25.5333 131.385 25.64 131.092 25.64H123.292C122.785 25.64 122.398 25.3733 122.132 24.84C121.758 24.04 121.265 23.64 120.652 23.64C119.585 23.64 119.052 24.4933 119.052 26.2ZM156.479 29.96H144.559V30.16C144.559 31.7867 145.079 32.6 146.119 32.6C146.413 32.6 146.773 32.3867 147.199 31.96C147.626 31.5333 148.093 31.32 148.599 31.32H156.159C156.746 31.32 157.039 31.6133 157.039 32.2C157.039 33.5067 156.053 34.8667 154.079 36.28C152.133 37.6933 149.479 38.4 146.119 38.4C142.786 38.4 140.053 37.5333 137.919 35.8C135.813 34.04 134.759 31.6267 134.759 28.56V26.64C134.759 23.7333 135.839 21.3733 137.999 19.56C140.159 17.72 142.986 16.8 146.479 16.8C149.999 16.8 152.719 17.8267 154.639 19.88C156.586 21.9333 157.559 24.5333 157.559 27.68V28.88C157.559 29.1733 157.453 29.4267 157.239 29.64C157.026 29.8533 156.773 29.96 156.479 29.96ZM147.759 24.8C147.759 23.2 147.226 22.4 146.159 22.4C145.093 22.4 144.559 23.2 144.559 24.8V24.96H147.759V24.8ZM162.625 10H174.545C178.385 10 181.385 10.8267 183.545 12.48C185.705 14.1333 186.785 16.5733 186.785 19.8C186.785 23.0267 185.705 25.4133 183.545 26.96C181.412 28.5067 178.412 29.28 174.545 29.28H171.945V36.92C171.945 37.2133 171.839 37.4667 171.625 37.68C171.412 37.8933 171.159 38 170.865 38H162.625C162.332 38 162.079 37.8933 161.865 37.68C161.652 37.4667 161.545 37.2133 161.545 36.92V11.08C161.545 10.7867 161.652 10.5333 161.865 10.32C162.079 10.1067 162.332 10 162.625 10ZM171.745 17.44V21.88H174.545C175.025 21.88 175.452 21.7067 175.825 21.36C176.199 20.9867 176.385 20.4667 176.385 19.8C176.385 19.1333 176.239 18.5733 175.945 18.12C175.652 17.6667 175.185 17.44 174.545 17.44H171.745ZM198.209 38H191.049C190.755 38 190.502 37.8933 190.289 37.68C190.075 37.4667 189.969 37.2133 189.969 36.92V18.28C189.969 17.9867 190.075 17.7333 190.289 17.52C190.502 17.3067 190.755 17.2 191.049 17.2H198.209C198.502 17.2 198.755 17.3067 198.969 17.52C199.182 17.7333 199.289 17.9867 199.289 18.28V36.92C199.289 37.2133 199.182 37.4667 198.969 37.68C198.755 37.8933 198.502 38 198.209 38ZM199.089 9.48V14.32C199.089 14.6133 198.982 14.8667 198.769 15.08C198.555 15.2933 198.302 15.4 198.009 15.4H191.249C190.955 15.4 190.702 15.2933 190.489 15.08C190.275 14.8667 190.169 14.6133 190.169 14.32V9.48C190.169 9.18666 190.275 8.93333 190.489 8.72C190.702 8.50667 190.955 8.4 191.249 8.4H198.009C198.302 8.4 198.555 8.50667 198.769 8.72C198.982 8.93333 199.089 9.18666 199.089 9.48ZM211.529 38H204.369C204.076 38 203.822 37.8933 203.609 37.68C203.396 37.4667 203.289 37.2133 203.289 36.92V10.68C203.289 10.3867 203.396 10.1333 203.609 9.92C203.822 9.70667 204.076 9.6 204.369 9.6H211.529C211.822 9.6 212.076 9.70667 212.289 9.92C212.502 10.1333 212.609 10.3867 212.609 10.68V36.92C212.609 37.2133 212.502 37.4667 212.289 37.68C212.076 37.8933 211.822 38 211.529 38ZM216.009 28.96V26.24C216.009 23.2 217.089 20.8667 219.249 19.24C221.409 17.6133 224.196 16.8 227.609 16.8C231.023 16.8 233.809 17.6133 235.969 19.24C238.129 20.8667 239.209 23.2 239.209 26.24V28.96C239.209 32.0267 238.169 34.3733 236.089 36C234.009 37.6 231.183 38.4 227.609 38.4C224.036 38.4 221.209 37.6 219.129 36C217.049 34.3733 216.009 32.0267 216.009 28.96ZM229.409 29.28V25.92C229.409 24.9067 229.276 24.2 229.009 23.8C228.743 23.4 228.276 23.2 227.609 23.2C226.943 23.2 226.476 23.4 226.209 23.8C225.943 24.2 225.809 24.9067 225.809 25.92V29.28C225.809 30.3467 225.943 31.0667 226.209 31.44C226.476 31.8133 226.943 32 227.609 32C228.276 32 228.743 31.8 229.009 31.4C229.276 31 229.409 30.2933 229.409 29.28ZM254.625 24.2V28.6C254.625 29.9333 255.198 30.6 256.345 30.6H259.985C260.278 30.6 260.532 30.7067 260.745 30.92C260.958 31.1333 261.065 31.3867 261.065 31.68V36.92C261.065 37.2133 260.958 37.4667 260.745 37.68C260.532 37.8933 260.278 38 259.985 38H255.465C248.798 38 245.465 35.1333 245.465 29.4V24.2H242.305C242.012 24.2 241.758 24.0933 241.545 23.88C241.332 23.6667 241.225 23.4133 241.225 23.12V18.28C241.225 17.9867 241.332 17.7333 241.545 17.52C241.758 17.3067 242.012 17.2 242.305 17.2H245.465V10.68C245.465 10.3867 245.572 10.1333 245.785 9.92C245.998 9.70667 246.252 9.6 246.545 9.6H253.545C253.838 9.6 254.092 9.70667 254.305 9.92C254.518 10.1333 254.625 10.3867 254.625 10.68V17.2H259.665C259.958 17.2 260.212 17.3067 260.425 17.52C260.638 17.7333 260.745 17.9867 260.745 18.28V23.12C260.745 23.4133 260.638 23.6667 260.425 23.88C260.212 24.0933 259.958 24.2 259.665 24.2H254.625Z" fill="#030205"/>
</svg>
