<svg width="40" height="40" viewBox="0 0 40 40" fill="none" xmlns="http://www.w3.org/2000/svg">
<circle cx="20" cy="20" r="19.5" stroke="#030205"/>
<path d="M27.5 20.4395V18.5H26V20.75C26 20.9489 26.0791 21.1396 26.2197 21.2803L28.25 23.3105V24.5H11.75V23.3105L13.7802 21.2803C13.9209 21.1396 14 20.9489 14 20.75V17.75C13.998 16.6962 14.2742 15.6605 14.8006 14.7475C15.327 13.8345 16.085 13.0767 16.998 12.5504C17.911 12.0241 18.9468 11.748 20.0006 11.7501C21.0544 11.7522 22.0891 12.0324 23 12.5623V10.8845C22.2861 10.5684 21.5267 10.3669 20.75 10.2875V8.75H19.25V10.2875C17.4009 10.4757 15.6873 11.3428 14.4405 12.7212C13.1937 14.0996 12.5023 15.8914 12.5 17.75V20.4395L10.4697 22.4697C10.3291 22.6104 10.25 22.8011 10.25 23V25.25C10.25 25.4489 10.329 25.6397 10.4697 25.7803C10.6103 25.921 10.8011 26 11 26H16.25V26.75C16.25 27.7446 16.6451 28.6984 17.3483 29.4016C18.0516 30.1049 19.0054 30.5 20 30.5C20.9946 30.5 21.9484 30.1049 22.6517 29.4016C23.3549 28.6984 23.75 27.7446 23.75 26.75V26H29C29.1989 26 29.3897 25.921 29.5303 25.7803C29.671 25.6397 29.75 25.4489 29.75 25.25V23C29.75 22.8011 29.6709 22.6104 29.5303 22.4697L27.5 20.4395ZM22.25 26.75C22.25 27.3467 22.0129 27.919 21.591 28.341C21.169 28.7629 20.5967 29 20 29C19.4033 29 18.831 28.7629 18.409 28.341C17.9871 27.919 17.75 27.3467 17.75 26.75V26H22.25V26.75Z" fill="#030205"/>
<path d="M27.5 17C29.1569 17 30.5 15.6569 30.5 14C30.5 12.3431 29.1569 11 27.5 11C25.8431 11 24.5 12.3431 24.5 14C24.5 15.6569 25.8431 17 27.5 17Z" fill="#030205"/>
</svg>
