<svg width="24" height="24" viewBox="0 0 24 24" fill="none" xmlns="http://www.w3.org/2000/svg">
<g id="wpf:search" clip-path="url(#clip0_273_888)">
<path id="Vector" d="M9.23003 0.173554C8.04054 0.173432 6.86267 0.407615 5.76369 0.862729C4.66471 1.31784 3.66614 1.98497 2.825 2.82603C1.98386 3.66708 1.31663 4.66559 0.861404 5.76452C0.406178 6.86345 0.171875 8.04129 0.171875 9.23078C0.171754 10.4204 0.405967 11.5983 0.861139 12.6973C1.31631 13.7964 1.98352 14.795 2.82468 15.6361C3.66583 16.4773 4.66444 17.1445 5.76348 17.5997C6.86252 18.0548 8.04046 18.2891 9.23003 18.2889C11.3439 18.2889 13.2851 17.5403 14.8266 16.3274L15.6343 17.1351C15.4685 17.4573 15.4098 17.8241 15.4667 18.182C15.5236 18.5399 15.6933 18.8704 15.951 19.1252L20.1916 23.3945C20.8497 24.0536 21.927 24.0536 22.586 23.3945L23.3937 22.5868C23.7099 22.2686 23.8874 21.8382 23.8874 21.3896C23.8874 20.9409 23.7099 20.5105 23.3937 20.1923L19.1245 15.9517C18.8678 15.6958 18.5354 15.5295 18.1767 15.4776C17.818 15.4257 17.4521 15.491 17.1334 15.6637L16.3257 14.856C17.383 13.5219 18.0428 11.9168 18.2296 10.2248C18.4165 8.53279 18.1227 6.82241 17.382 5.28974C16.6413 3.75706 15.4836 2.46416 14.0418 1.55926C12.6 0.654358 10.9323 0.174101 9.23003 0.173554ZM9.23003 1.84617C11.1886 1.84617 13.0669 2.62419 14.4517 4.00907C15.8366 5.39396 16.6146 7.27226 16.6146 9.23078C16.6146 11.1893 15.8366 13.0676 14.4517 14.4525C13.0669 15.8374 11.1886 16.6154 9.23003 16.6154C7.27151 16.6154 5.3932 15.8374 4.00832 14.4525C2.62343 13.0676 1.84541 11.1893 1.84541 9.23078C1.84541 7.27226 2.62343 5.39396 4.00832 4.00907C5.3932 2.62419 7.27151 1.84617 9.23003 1.84617ZM4.55649 6.89448C4.06415 7.69193 3.80454 8.61113 3.80695 9.54832C3.80586 10.2116 3.93569 10.8685 4.189 11.4815C4.44232 12.0945 4.81413 12.6515 5.28313 13.1205C5.75212 13.5895 6.30908 13.9613 6.92206 14.2146C7.53505 14.4679 8.192 14.5977 8.85526 14.5966C9.89794 14.5945 10.9148 14.2723 11.7685 13.6736C11.5384 13.6949 11.3073 13.7041 11.0762 13.7012C10.2195 13.7034 9.37076 13.5363 8.57883 13.2095C7.78689 12.8827 7.06734 12.4026 6.4615 11.7969C5.85567 11.1911 5.3755 10.4717 5.04857 9.67976C4.72165 8.88787 4.55442 8.03919 4.55649 7.18248C4.55649 7.08648 4.55188 6.99048 4.55649 6.89448Z" fill="#030205"/>
</g>
<defs>
<clipPath id="clip0_273_888">
<rect width="24" height="24" fill="white"/>
</clipPath>
</defs>
</svg>
