<svg width="25" height="24" viewBox="0 0 25 24" fill="none" xmlns="http://www.w3.org/2000/svg">
<g id="uil:setting">
<path id="Vector" d="M20.0474 12.66C19.887 12.4775 19.7986 12.2429 19.7986 12C19.7986 11.7571 19.887 11.5225 20.0474 11.34L21.3274 9.9C21.4684 9.74267 21.556 9.54471 21.5775 9.33451C21.5991 9.12431 21.5535 8.91269 21.4474 8.73L19.4474 5.27C19.3423 5.08752 19.1822 4.94288 18.9901 4.85669C18.798 4.7705 18.5835 4.74716 18.3774 4.79L16.4974 5.17C16.2581 5.21943 16.0091 5.17959 15.7972 5.058C15.5854 4.93641 15.4254 4.74149 15.3474 4.51L14.7374 2.68C14.6703 2.48138 14.5425 2.30887 14.372 2.18684C14.2015 2.06482 13.997 1.99946 13.7874 2H9.78736C9.56929 1.98862 9.35349 2.04893 9.17292 2.17172C8.99235 2.2945 8.85694 2.47302 8.78736 2.68L8.22736 4.51C8.14936 4.74149 7.98933 4.93641 7.77747 5.058C7.56561 5.17959 7.31657 5.21943 7.07736 5.17L5.14736 4.79C4.95191 4.76238 4.75266 4.79322 4.5747 4.87864C4.39675 4.96406 4.24806 5.10023 4.14736 5.27L2.14736 8.73C2.03852 8.91065 1.98958 9.12109 2.00754 9.33123C2.0255 9.54136 2.10944 9.74044 2.24736 9.9L3.51736 11.34C3.67768 11.5225 3.76609 11.7571 3.76609 12C3.76609 12.2429 3.67768 12.4775 3.51736 12.66L2.24736 14.1C2.10944 14.2596 2.0255 14.4586 2.00754 14.6688C1.98958 14.8789 2.03852 15.0894 2.14736 15.27L4.14736 18.73C4.25245 18.9125 4.41248 19.0571 4.60461 19.1433C4.79674 19.2295 5.01118 19.2528 5.21736 19.21L7.09736 18.83C7.33657 18.7806 7.58561 18.8204 7.79747 18.942C8.00933 19.0636 8.16936 19.2585 8.24736 19.49L8.85736 21.32C8.92694 21.527 9.06235 21.7055 9.24292 21.8283C9.42349 21.9511 9.63929 22.0114 9.85736 22H13.8574C14.067 22.0005 14.2715 21.9352 14.442 21.8132C14.6125 21.6911 14.7403 21.5186 14.8074 21.32L15.4174 19.49C15.4954 19.2585 15.6554 19.0636 15.8672 18.942C16.0791 18.8204 16.3281 18.7806 16.5674 18.83L18.4474 19.21C18.6535 19.2528 18.868 19.2295 19.0601 19.1433C19.2522 19.0571 19.4123 18.9125 19.5174 18.73L21.5174 15.27C21.6235 15.0873 21.6691 14.8757 21.6475 14.6655C21.626 14.4553 21.5384 14.2573 21.3974 14.1L20.0474 12.66ZM18.5574 14L19.3574 14.9L18.0774 17.12L16.8974 16.88C16.1771 16.7328 15.4279 16.8551 14.792 17.2238C14.156 17.5925 13.6775 18.1818 13.4474 18.88L13.0674 20H10.5074L10.1474 18.86C9.91721 18.1618 9.43874 17.5725 8.80276 17.2038C8.16679 16.8351 7.41758 16.7128 6.69736 16.86L5.51736 17.1L4.21736 14.89L5.01736 13.99C5.50931 13.44 5.78129 12.7279 5.78129 11.99C5.78129 11.2521 5.50931 10.54 5.01736 9.99L4.21736 9.09L5.49736 6.89L6.67736 7.13C7.39758 7.27722 8.14679 7.15488 8.78276 6.7862C9.41874 6.41752 9.89721 5.82816 10.1274 5.13L10.5074 4H13.0674L13.4474 5.14C13.6775 5.83816 14.156 6.42752 14.792 6.7962C15.4279 7.16488 16.1771 7.28722 16.8974 7.14L18.0774 6.9L19.3574 9.12L18.5574 10.02C18.0709 10.5688 17.8023 11.2767 17.8023 12.01C17.8023 12.7433 18.0709 13.4512 18.5574 14ZM11.7874 8C10.9962 8 10.2229 8.2346 9.56508 8.67412C8.90728 9.11365 8.39459 9.73836 8.09184 10.4693C7.78909 11.2002 7.70988 12.0044 7.86422 12.7804C8.01856 13.5563 8.39952 14.269 8.95893 14.8284C9.51834 15.3878 10.2311 15.7688 11.007 15.9231C11.7829 16.0775 12.5872 15.9983 13.3181 15.6955C14.049 15.3928 14.6737 14.8801 15.1132 14.2223C15.5528 13.5645 15.7874 12.7911 15.7874 12C15.7874 10.9391 15.3659 9.92172 14.6158 9.17157C13.8656 8.42143 12.8482 8 11.7874 8ZM11.7874 14C11.3918 14 11.0051 13.8827 10.6762 13.6629C10.3473 13.4432 10.091 13.1308 9.9396 12.7654C9.78822 12.3999 9.74862 11.9978 9.82579 11.6098C9.90296 11.2219 10.0934 10.8655 10.3731 10.5858C10.6528 10.3061 11.0092 10.1156 11.3972 10.0384C11.7851 9.96126 12.1873 10.0009 12.5527 10.1522C12.9182 10.3036 13.2305 10.56 13.4503 10.8889C13.6701 11.2178 13.7874 11.6044 13.7874 12C13.7874 12.5304 13.5766 13.0391 13.2016 13.4142C12.8265 13.7893 12.3178 14 11.7874 14Z" fill="white"/>
</g>
</svg>
