<svg width="223" height="94" viewBox="0 0 223 94" fill="none" xmlns="http://www.w3.org/2000/svg">
<path fill-rule="evenodd" clip-rule="evenodd" d="M13.9488 35.6719C0.252234 47.1324 -6.88566 63.8924 9.67058 76.2765C23.9586 86.9673 48.6025 90.2944 68.6366 92.0123C88.7491 93.7389 108.979 93.2136 128.89 91.4752C162.566 88.5391 224.788 79.799 222.394 49.9745C221.021 32.8814 199.463 16.0674 177.702 7.97792C151.481 -1.76937 120.589 -0.423361 92.9704 4.02464C64.9315 8.53858 38.3089 17.3125 20.9505 32.8586C6.90448 45.4386 -4.00905 65.9369 13.9766 79.7579C29.8665 91.9694 59.6275 92.6846 81.3141 91.1889C107.588 89.3755 133.774 86.599 158.71 80.9704C181.587 75.8044 205.768 67.526 216.91 52.5885C224.825 41.9728 223.815 30.3273 209.223 22.288C194.271 14.0481 172.57 11.5942 154.123 10.0735C133.842 8.40227 114.037 8.56023 93.9918 10.385C89.2026 10.8225 84.409 11.2553 79.6162 11.6673C77.478 11.8524 78.3126 14.0316 80.4306 13.8473C93.7784 12.6964 106.988 11.1241 120.512 11.0513C130.01 11.0023 139.533 11.3184 149.017 11.9318C168.709 13.2077 191.294 15.6597 207.462 24.1512C226.888 34.3569 217.516 51.463 203.595 61.2404C184.591 74.5909 154.807 80.3235 128.39 84.1729C103.329 87.8248 75.3737 91.2368 49.5118 88.6614C36.9808 87.413 24.103 84.1847 15.5492 77.6105C5.66838 70.018 7.00789 59.4773 10.9912 50.7579C20.7637 29.3866 48.881 15.8004 79.505 8.92955C108.968 2.32276 143.319 -0.634456 172.864 8.78247C187.586 13.4728 199.326 21.3303 208.031 30.4181C214.958 37.6551 220.163 45.9713 218.892 54.5525C216.72 69.2179 193.611 77.3292 175.252 81.9243C153.804 87.2895 130.283 89.7216 107.304 90.6228C85.8626 91.4627 63.7 90.3618 42.8545 86.2475C31.226 83.9497 19.5459 80.357 11.3017 74.1908C2.06715 67.2808 1.69256 57.8523 5.85696 49.6783C11.4238 38.7551 24.8127 29.9252 38.3239 23.1943C51.6978 16.5303 68.3406 11.0481 85.4768 10.4938C87.6132 10.4251 87.7112 8.19782 85.5545 8.26734C57.4347 9.17563 30.7679 21.5971 13.9488 35.6719Z" fill="#144EAC"/>
</svg>
