<svg width="294" height="284" viewBox="0 0 294 284" fill="none" xmlns="http://www.w3.org/2000/svg">
<path d="M147.923 0.307928L92.7529 34.4178L45.6494 34.1555L45.487 63.3217L15.7785 81.969C7.29184 87.026 1.55326 96.1817 1.49396 106.827L0.681684 252.658C0.638598 260.394 3.67014 267.829 9.1094 273.33C14.5487 278.83 21.9501 281.944 29.6854 281.987L263.015 283.287C279.202 283.377 292.254 270.47 292.344 254.283L293.156 108.452C293.215 97.8062 287.579 88.5872 279.149 83.436L249.65 64.4589L249.813 35.2927L202.71 35.0303M74.6532 63.4841L220.484 64.2964L220.088 135.462L146.919 180.555L74.2568 134.65M89.1551 78.1485L89.0332 100.023L205.698 100.673L205.82 78.7983M45.2936 98.0295L45.1921 116.258L30.6602 106.99M249.457 99.1667L263.99 108.289L249.356 117.396M88.952 114.606L88.8301 136.481L205.495 137.131L205.617 115.256L88.952 114.606Z" fill="#144EAC"/>
</svg>
