<svg width="24" height="24" viewBox="0 0 24 24" fill="none" xmlns="http://www.w3.org/2000/svg">
<g clip-path="url(#clip0_153_552)">
<path d="M9.23076 0.173523C8.04127 0.173402 6.86341 0.407584 5.76443 0.862699C4.66545 1.31781 3.66687 1.98494 2.82574 2.826C1.9846 3.66705 1.31736 4.66555 0.862136 5.76449C0.40691 6.86342 0.172607 8.04126 0.172607 9.23075C0.172486 10.4203 0.4067 11.5983 0.861871 12.6973C1.31704 13.7963 1.98426 14.795 2.82541 15.6361C3.66656 16.4773 4.66517 17.1445 5.76421 17.5996C6.86325 18.0548 8.04119 18.289 9.23076 18.2889C11.3446 18.2889 13.2858 17.5403 14.8274 16.3274L15.6351 17.1351C15.4692 17.4573 15.4105 17.8241 15.4674 18.182C15.5244 18.5399 15.694 18.8703 15.9517 19.1252L20.1923 23.3944C20.8505 24.0535 21.9277 24.0535 22.5868 23.3944L23.3945 22.5868C23.7107 22.2685 23.8882 21.8381 23.8882 21.3895C23.8882 20.9409 23.7107 20.5105 23.3945 20.1923L19.1252 15.9517C18.8686 15.6958 18.5362 15.5295 18.1774 15.4776C17.8187 15.4257 17.4528 15.491 17.1341 15.6637L16.3265 14.856C17.3837 13.5218 18.0436 11.9167 18.2304 10.2248C18.4172 8.53276 18.1234 6.82238 17.3827 5.2897C16.642 3.75703 15.4844 2.46413 14.0425 1.55923C12.6007 0.654327 10.933 0.174071 9.23076 0.173523ZM9.23076 1.84614C11.1893 1.84614 13.0676 2.62416 14.4525 4.00904C15.8374 5.39393 16.6154 7.27223 16.6154 9.23075C16.6154 11.1893 15.8374 13.0676 14.4525 14.4525C13.0676 15.8373 11.1893 16.6154 9.23076 16.6154C7.27224 16.6154 5.39393 15.8373 4.00905 14.4525C2.62417 13.0676 1.84615 11.1893 1.84615 9.23075C1.84615 7.27223 2.62417 5.39393 4.00905 4.00904C5.39393 2.62416 7.27224 1.84614 9.23076 1.84614ZM4.55722 6.89445C4.06488 7.6919 3.80527 8.6111 3.80768 9.54829C3.80659 10.2116 3.93642 10.8685 4.18974 11.4815C4.44305 12.0945 4.81486 12.6514 5.28386 13.1204C5.75286 13.5894 6.30981 13.9612 6.92279 14.2145C7.53578 14.4679 8.19273 14.5977 8.85599 14.5966C9.89868 14.5945 10.9156 14.2722 11.7692 13.6735C11.5391 13.6948 11.308 13.7041 11.0769 13.7012C10.2202 13.7034 9.37149 13.5363 8.57956 13.2095C7.78763 12.8827 7.06807 12.4026 6.46224 11.7969C5.8564 11.1911 5.37623 10.4716 5.04931 9.67973C4.72238 8.88784 4.55515 8.03916 4.55722 7.18245C4.55722 7.08645 4.55261 6.99045 4.55722 6.89445Z" fill="black"/>
</g>
<defs>
<clipPath id="clip0_153_552">
<rect width="24" height="24" fill="white"/>
</clipPath>
</defs>
</svg>
